<svg width="70" height="70" viewBox="0 0 70 70" fill="none" xmlns="http://www.w3.org/2000/svg">
<g clip-path="url(#clip0_347_89)">
<path d="M67.0834 32.0834H61.25V26.25C61.25 25.4765 60.9427 24.7346 60.3958 24.1876C59.8488 23.6407 59.1069 23.3334 58.3334 23.3334C57.5598 23.3334 56.8179 23.6407 56.271 24.1876C55.724 24.7346 55.4167 25.4765 55.4167 26.25V32.0834H49.5834C48.8098 32.0834 48.0679 32.3907 47.521 32.9377C46.974 33.4846 46.6667 34.2265 46.6667 35C46.6667 35.7736 46.974 36.5155 47.521 37.0624C48.0679 37.6094 48.8098 37.9167 49.5834 37.9167H55.4167V43.7501C55.4167 44.5236 55.724 45.2655 56.271 45.8124C56.8179 46.3594 57.5598 46.6667 58.3334 46.6667C59.1069 46.6667 59.8488 46.3594 60.3958 45.8124C60.9427 45.2655 61.25 44.5236 61.25 43.7501V37.9167H67.0834C67.8569 37.9167 68.5988 37.6094 69.1458 37.0624C69.6927 36.5155 70 35.7736 70 35C70 34.2265 69.6927 33.4846 69.1458 32.9377C68.5988 32.3907 67.8569 32.0834 67.0834 32.0834Z" fill="white"/>
<path d="M26.25 35C29.7112 35 33.0946 33.9736 35.9725 32.0507C38.8503 30.1278 41.0934 27.3947 42.4179 24.197C43.7424 20.9993 44.089 17.4806 43.4137 14.0859C42.7385 10.6913 41.0718 7.57306 38.6244 5.12564C36.1769 2.67822 33.0587 1.01151 29.6641 0.336265C26.2694 -0.338976 22.7507 0.0075825 19.553 1.33212C16.3553 2.65665 13.6222 4.89967 11.6993 7.77753C9.77636 10.6554 8.75 14.0388 8.75 17.5C8.75463 22.1399 10.5999 26.5884 13.8807 29.8693C17.1616 33.1501 21.6101 34.9954 26.25 35ZM26.25 5.83334C28.5574 5.83334 30.8131 6.51758 32.7316 7.79953C34.6502 9.08148 36.1456 10.9036 37.0286 13.0354C37.9116 15.1672 38.1427 17.5129 37.6925 19.7761C37.2423 22.0392 36.1312 24.118 34.4996 25.7496C32.868 27.3812 30.7892 28.4923 28.5261 28.9425C26.2629 29.3927 23.9172 29.1616 21.7854 28.2786C19.6536 27.3956 17.8315 25.9002 16.5495 23.9817C15.2676 22.0631 14.5833 19.8075 14.5833 17.5C14.5833 14.4058 15.8125 11.4384 18.0004 9.25043C20.1883 7.0625 23.1558 5.83334 26.25 5.83334Z" fill="white"/>
<path d="M26.25 40.8334C19.2904 40.8411 12.6181 43.6092 7.69697 48.5303C2.77582 53.4515 0.00771999 60.1238 0 67.0834C0 67.8569 0.307291 68.5988 0.854272 69.1458C1.40125 69.6928 2.14312 70 2.91667 70C3.69021 70 4.43208 69.6928 4.97906 69.1458C5.52604 68.5988 5.83333 67.8569 5.83333 67.0834C5.83333 61.6685 7.98437 56.4755 11.8132 52.6466C15.6421 48.8177 20.8352 46.6667 26.25 46.6667C31.6648 46.6667 36.8579 48.8177 40.6868 52.6466C44.5156 56.4755 46.6667 61.6685 46.6667 67.0834C46.6667 67.8569 46.9739 68.5988 47.5209 69.1458C48.0679 69.6928 48.8098 70 49.5833 70C50.3569 70 51.0987 69.6928 51.6457 69.1458C52.1927 68.5988 52.5 67.8569 52.5 67.0834C52.4923 60.1238 49.7242 53.4515 44.803 48.5303C39.8819 43.6092 33.2096 40.8411 26.25 40.8334Z" fill="white"/>
</g>
<defs>
<clipPath id="clip0_347_89">
<rect width="70" height="70" fill="white"/>
</clipPath>
</defs>
</svg>
