<svg width="70" height="70" viewBox="0 0 70 70" fill="none" xmlns="http://www.w3.org/2000/svg">
<g clip-path="url(#clip0_312_206)">
<path d="M52.5 0H23.3333C20.499 0.00372859 17.7272 0.833307 15.3569 2.38729C12.9865 3.94127 11.1204 6.1523 9.98667 8.75H5.83334C5.05979 8.75 4.31792 9.05729 3.77094 9.60427C3.22396 10.1513 2.91667 10.8931 2.91667 11.6667C2.91667 12.4402 3.22396 13.1821 3.77094 13.7291C4.31792 14.276 5.05979 14.5833 5.83334 14.5833H8.75001V20.4167H5.83334C5.05979 20.4167 4.31792 20.724 3.77094 21.2709C3.22396 21.8179 2.91667 22.5598 2.91667 23.3333C2.91667 24.1069 3.22396 24.8487 3.77094 25.3957C4.31792 25.9427 5.05979 26.25 5.83334 26.25H8.75001V32.0833H5.83334C5.05979 32.0833 4.31792 32.3906 3.77094 32.9376C3.22396 33.4846 2.91667 34.2264 2.91667 35C2.91667 35.7735 3.22396 36.5154 3.77094 37.0624C4.31792 37.6094 5.05979 37.9167 5.83334 37.9167H8.75001V43.75H5.83334C5.05979 43.75 4.31792 44.0573 3.77094 44.6043C3.22396 45.1512 2.91667 45.8931 2.91667 46.6667C2.91667 47.4402 3.22396 48.1821 3.77094 48.7291C4.31792 49.276 5.05979 49.5833 5.83334 49.5833H8.75001V55.4167H5.83334C5.05979 55.4167 4.31792 55.7239 3.77094 56.2709C3.22396 56.8179 2.91667 57.5598 2.91667 58.3333C2.91667 59.1069 3.22396 59.8487 3.77094 60.3957C4.31792 60.9427 5.05979 61.25 5.83334 61.25H9.98667C11.1204 63.8477 12.9865 66.0587 15.3569 67.6127C17.7272 69.1667 20.499 69.9963 23.3333 70H52.5C56.3663 69.9954 60.073 68.4574 62.8069 65.7235C65.5408 62.9896 67.0787 59.283 67.0834 55.4167V14.5833C67.0787 10.717 65.5408 7.01038 62.8069 4.27647C60.073 1.54257 56.3663 0.00463125 52.5 0V0ZM61.25 55.4167C61.25 57.7373 60.3281 59.9629 58.6872 61.6038C57.0463 63.2448 54.8207 64.1667 52.5 64.1667H23.3333C21.0127 64.1667 18.7871 63.2448 17.1462 61.6038C15.5052 59.9629 14.5833 57.7373 14.5833 55.4167V14.5833C14.5833 12.2627 15.5052 10.0371 17.1462 8.39615C18.7871 6.75521 21.0127 5.83333 23.3333 5.83333H52.5C54.8207 5.83333 57.0463 6.75521 58.6872 8.39615C60.3281 10.0371 61.25 12.2627 61.25 14.5833V55.4167ZM37.9167 35C40.2373 35 42.4629 34.0781 44.1039 32.4372C45.7448 30.7962 46.6667 28.5706 46.6667 26.25C46.6667 23.9294 45.7448 21.7038 44.1039 20.0628C42.4629 18.4219 40.2373 17.5 37.9167 17.5C35.596 17.5 33.3704 18.4219 31.7295 20.0628C30.0885 21.7038 29.1667 23.9294 29.1667 26.25C29.1667 28.5706 30.0885 30.7962 31.7295 32.4372C33.3704 34.0781 35.596 35 37.9167 35ZM52.5 52.5C52.5 53.2735 52.1927 54.0154 51.6457 54.5624C51.0988 55.1094 50.3569 55.4167 49.5833 55.4167C48.8098 55.4167 48.0679 55.1094 47.521 54.5624C46.974 54.0154 46.6667 53.2735 46.6667 52.5C46.6667 50.1793 45.7448 47.9538 44.1039 46.3128C42.4629 44.6719 40.2373 43.75 37.9167 43.75C35.596 43.75 33.3704 44.6719 31.7295 46.3128C30.0885 47.9538 29.1667 50.1793 29.1667 52.5C29.1667 53.2735 28.8594 54.0154 28.3124 54.5624C27.7654 55.1094 27.0236 55.4167 26.25 55.4167C25.4765 55.4167 24.7346 55.1094 24.1876 54.5624C23.6406 54.0154 23.3333 53.2735 23.3333 52.5C23.9488 33.2267 51.8904 33.2325 52.5 52.5Z" fill="white"/>
</g>
<defs>
<clipPath id="clip0_312_206">
<rect width="70" height="70" fill="white"/>
</clipPath>
</defs>
</svg>
