<?xml version="1.0"?>
<svg xmlns="http://www.w3.org/2000/svg" xmlns:xlink="http://www.w3.org/1999/xlink" xmlns:svgjs="http://svgjs.com/svgjs" version="1.1" width="512" height="512" x="0" y="0" viewBox="0 0 24 24" style="enable-background:new 0 0 512 512" xml:space="preserve"><g><path xmlns="http://www.w3.org/2000/svg" d="m20 4h-5a4 4 0 0 0 -4-4h-7a4 4 0 0 0 -4 4v19a1 1 0 0 0 2 0v-10h8a4 4 0 0 0 4 4h6a4 4 0 0 0 4-4v-5a4 4 0 0 0 -4-4zm-18 7v-7a2 2 0 0 1 2-2h7a2 2 0 0 1 2 2v5a2 2 0 0 1 -2 2zm20 2a2 2 0 0 1 -2 2h-6a2 2 0 0 1 -2-2v-.142a4 4 0 0 0 3-3.858v-3h5a2 2 0 0 1 2 2z" fill="#ffffff" data-original="#000000"/></g></svg>
