<svg width="20" height="20" viewBox="0 0 20 20" fill="none" xmlns="http://www.w3.org/2000/svg">
<g clip-path="url(#clip0_455_43)">
<path d="M10.8332 0.833443C10.8332 0.61243 10.921 0.400468 11.0773 0.244188C11.2336 0.0879075 11.4456 0.000110103 11.6666 0.000110103C13.876 0.00253643 15.9942 0.881289 17.5565 2.44357C19.1187 4.00584 19.9975 6.12405 19.9999 8.33344C19.9999 8.55446 19.9121 8.76642 19.7558 8.9227C19.5995 9.07898 19.3876 9.16678 19.1666 9.16678C18.9456 9.16678 18.7336 9.07898 18.5773 8.9227C18.421 8.76642 18.3332 8.55446 18.3332 8.33344C18.3313 6.56594 17.6282 4.8714 16.3784 3.62159C15.1286 2.37178 13.4341 1.66876 11.6666 1.66678C11.4456 1.66678 11.2336 1.57898 11.0773 1.4227C10.921 1.26642 10.8332 1.05446 10.8332 0.833443V0.833443ZM11.6666 5.00011C12.5506 5.00011 13.3985 5.3513 14.0236 5.97642C14.6487 6.60154 14.9999 7.44939 14.9999 8.33344C14.9999 8.55446 15.0877 8.76642 15.244 8.9227C15.4003 9.07898 15.6122 9.16678 15.8332 9.16678C16.0543 9.16678 16.2662 9.07898 16.4225 8.9227C16.5788 8.76642 16.6666 8.55446 16.6666 8.33344C16.6652 7.00777 16.138 5.73677 15.2006 4.79937C14.2633 3.86198 12.9923 3.33477 11.6666 3.33344C11.4456 3.33344 11.2336 3.42124 11.0773 3.57752C10.921 3.7338 10.8332 3.94576 10.8332 4.16678C10.8332 4.38779 10.921 4.59975 11.0773 4.75603C11.2336 4.91231 11.4456 5.00011 11.6666 5.00011V5.00011ZM19.2441 13.9493C19.727 14.4335 19.9982 15.0895 19.9982 15.7734C19.9982 16.4573 19.727 17.1133 19.2441 17.5976L18.4857 18.4718C11.6607 25.0059 -4.94759 8.40178 1.48574 1.55511L2.44407 0.721777C2.92888 0.252341 3.57902 -0.007349 4.25383 -0.00111086C4.92864 0.00512727 5.57386 0.276792 6.04991 0.75511C6.07574 0.780944 7.61991 2.78678 7.61991 2.78678C8.0781 3.26813 8.33316 3.90755 8.33207 4.57211C8.33099 5.23667 8.07384 5.87525 7.61407 6.35511L6.64907 7.56844C7.18311 8.86604 7.96829 10.0453 8.9595 11.0385C9.9507 12.0317 11.1284 12.8193 12.4249 13.3559L13.6457 12.3851C14.1257 11.9257 14.7641 11.6689 15.4285 11.6679C16.0929 11.667 16.732 11.9221 17.2132 12.3801C17.2132 12.3801 19.2182 13.9234 19.2441 13.9493ZM18.0974 15.1609C18.0974 15.1609 16.1032 13.6268 16.0774 13.6009C15.9057 13.4307 15.6738 13.3352 15.432 13.3352C15.1902 13.3352 14.9583 13.4307 14.7866 13.6009C14.7641 13.6243 13.0832 14.9634 13.0832 14.9634C12.97 15.0536 12.8352 15.1127 12.6921 15.1349C12.5491 15.1571 12.4027 15.1417 12.2674 15.0901C10.5878 14.4648 9.06219 13.4857 7.79394 12.2193C6.52568 10.953 5.54441 9.4288 4.91657 7.75011C4.86091 7.61299 4.84276 7.46352 4.86399 7.31706C4.88523 7.1706 4.94509 7.03244 5.03741 6.91678C5.03741 6.91678 6.37657 5.23511 6.39907 5.21344C6.5693 5.04177 6.66481 4.80979 6.66481 4.56803C6.66481 4.32626 6.5693 4.09429 6.39907 3.92261C6.37324 3.89761 4.83907 1.90178 4.83907 1.90178C4.66482 1.74553 4.43741 1.66186 4.20345 1.6679C3.96948 1.67394 3.74669 1.76925 3.58074 1.93428L2.62241 2.76761C-2.07926 8.42094 12.3132 22.0151 17.2674 17.3334L18.0266 16.4584C18.2045 16.2937 18.3113 16.0662 18.3245 15.824C18.3378 15.5819 18.2563 15.3441 18.0974 15.1609V15.1609Z" fill="white"/>
</g>
<defs>
<clipPath id="clip0_455_43">
<rect width="20" height="20" fill="white"/>
</clipPath>
</defs>
</svg>
