<svg width="70" height="70" viewBox="0 0 70 70" fill="none" xmlns="http://www.w3.org/2000/svg">
<g clip-path="url(#clip0_347_97)">
<path d="M21.8896 70.0001C16.6097 69.9967 11.5092 68.0838 7.52924 64.6143C3.5493 61.1448 0.958523 56.3529 0.234976 51.1228C-0.488572 45.8927 0.703941 40.5774 3.59246 36.1577C6.48099 31.738 10.8706 28.5122 15.9512 27.0755C19.6441 26.018 23.5529 25.9696 27.2708 26.9355L50.3358 3.87631C51.5603 2.64338 53.0173 1.66586 54.6225 1.00046C56.2277 0.335057 57.949 -0.00498693 59.6867 5.52628e-05C62.4212 0.00237236 65.0431 1.0897 66.9767 3.02332C68.9104 4.95694 69.9977 7.57883 70 10.3134C70.0045 12.0511 69.6645 13.7725 68.9997 15.378C68.3349 16.9835 67.3584 18.4413 66.1267 19.6671L64.1667 21.6271C63.07 22.7163 61.5882 23.3294 60.0425 23.3334H55.4167V26.2501C55.4167 27.7972 54.8021 29.2809 53.7081 30.3748C52.6142 31.4688 51.1304 32.0834 49.5833 32.0834H46.6667V36.7092C46.6687 37.4755 46.5187 38.2347 46.2254 38.9426C45.932 39.6505 45.501 40.2932 44.9575 40.8334L43.0617 42.7292C44.0328 46.4453 43.9855 50.3544 42.9246 54.0459C41.7308 58.2517 39.3088 62.0055 35.9687 64.8265C32.6287 67.6475 28.5225 69.4073 24.1763 69.8805C23.4166 69.9594 22.6533 69.9994 21.8896 70.0001ZM21.8896 32.0834C18.9034 32.0805 15.9756 32.9112 13.4359 34.482C10.8962 36.0528 8.84532 38.3014 7.51422 40.9745C6.18311 43.6477 5.62458 46.6393 5.90151 49.6127C6.17843 52.586 7.27982 55.4231 9.08168 57.8044C10.8835 60.1858 13.3143 62.0169 16.1005 63.0917C18.8866 64.1665 21.9174 64.4423 24.8517 63.8879C27.7861 63.3336 30.5074 61.9713 32.7095 59.9542C34.9115 57.9371 36.5068 55.3455 37.3158 52.4709C38.2258 49.3108 38.1238 45.9451 37.0242 42.8459C36.8447 42.3283 36.8146 41.7706 36.9374 41.2368C37.0602 40.7029 37.3308 40.2144 37.7183 39.8271L40.8333 36.7092V32.0834C40.8333 30.5363 41.4479 29.0526 42.5419 27.9586C43.6358 26.8646 45.1196 26.2501 46.6667 26.2501H49.5833V23.3334C49.5833 21.7863 50.1979 20.3026 51.2919 19.2086C52.3858 18.1146 53.8696 17.5001 55.4167 17.5001H60.0425L62.0025 15.5401C62.6907 14.8551 63.2363 14.0405 63.6078 13.1434C63.9793 12.2462 64.1692 11.2844 64.1667 10.3134C64.1659 9.12596 63.694 7.98735 62.8547 7.14743C62.0153 6.30752 60.877 5.83493 59.6896 5.83339C58.7179 5.831 57.7554 6.0213 56.8578 6.39327C55.9601 6.76525 55.1452 7.31151 54.46 8.00047L30.1612 32.2963C29.7735 32.6839 29.2843 32.9543 28.7498 33.0766C28.2154 33.1988 27.6573 33.168 27.1396 32.9876C25.4481 32.392 23.6682 32.0863 21.875 32.0834H21.8896ZM14.5833 52.5001C14.5833 53.0769 14.7544 53.6408 15.0749 54.1205C15.3954 54.6001 15.8509 54.974 16.3838 55.1947C16.9168 55.4155 17.5032 55.4732 18.069 55.3607C18.6348 55.2481 19.1545 54.9704 19.5624 54.5625C19.9703 54.1546 20.2481 53.6349 20.3606 53.0691C20.4732 52.5033 20.4154 51.9169 20.1946 51.3839C19.9739 50.851 19.6001 50.3954 19.1204 50.0749C18.6408 49.7545 18.0769 49.5834 17.5 49.5834C16.7265 49.5834 15.9846 49.8907 15.4376 50.4377C14.8906 50.9846 14.5833 51.7265 14.5833 52.5001Z" fill="white"/>
</g>
<defs>
<clipPath id="clip0_347_97">
<rect width="70" height="70" fill="white"/>
</clipPath>
</defs>
</svg>
