<svg width="35" height="35" viewBox="0 0 35 35" fill="none" xmlns="http://www.w3.org/2000/svg">
<g clip-path="url(#clip0_340_21)">
<path d="M10.9375 18.9583C9.63956 18.9583 8.37077 18.5735 7.29157 17.8524C6.21237 17.1313 5.37124 16.1063 4.87454 14.9072C4.37784 13.7081 4.24788 12.3886 4.5011 11.1156C4.75431 9.84256 5.37933 8.67323 6.29711 7.75545C7.21489 6.83767 8.38422 6.21265 9.65722 5.95943C10.9302 5.70622 12.2497 5.83618 13.4489 6.33288C14.648 6.82958 15.6729 7.67071 16.394 8.74991C17.1151 9.8291 17.5 11.0979 17.5 12.3958C17.4981 14.1357 16.806 15.8038 15.5758 17.0341C14.3455 18.2644 12.6774 18.9564 10.9375 18.9583ZM10.9375 8.75C10.2164 8.75 9.51154 8.96383 8.91198 9.36444C8.31243 9.76505 7.84513 10.3344 7.56919 11.0006C7.29324 11.6668 7.22105 12.3999 7.36172 13.1071C7.5024 13.8143 7.84963 14.464 8.35951 14.9738C8.86939 15.4837 9.51901 15.8309 10.2262 15.9716C10.9335 16.1123 11.6665 16.0401 12.3327 15.7641C12.9989 15.4882 13.5683 15.0209 13.9689 14.4214C14.3695 13.8218 14.5833 13.1169 14.5833 12.3958C14.5833 11.4289 14.1992 10.5016 13.5155 9.81784C12.8318 9.13412 11.9044 8.75 10.9375 8.75ZM21.875 33.5417V32.8125C21.875 29.9117 20.7227 27.1297 18.6715 25.0785C16.6203 23.0273 13.8383 21.875 10.9375 21.875C8.03669 21.875 5.2547 23.0273 3.20352 25.0785C1.15234 27.1297 0 29.9117 0 32.8125L0 33.5417C0 33.9284 0.153645 34.2994 0.427136 34.5729C0.700627 34.8464 1.07156 35 1.45833 35C1.84511 35 2.21604 34.8464 2.48953 34.5729C2.76302 34.2994 2.91667 33.9284 2.91667 33.5417V32.8125C2.91667 30.6852 3.76172 28.6451 5.26591 27.1409C6.77011 25.6367 8.81024 24.7917 10.9375 24.7917C13.0648 24.7917 15.1049 25.6367 16.6091 27.1409C18.1133 28.6451 18.9583 30.6852 18.9583 32.8125V33.5417C18.9583 33.9284 19.112 34.2994 19.3855 34.5729C19.659 34.8464 20.0299 35 20.4167 35C20.8034 35 21.1744 34.8464 21.4479 34.5729C21.7214 34.2994 21.875 33.9284 21.875 33.5417ZM35 26.25C34.9999 24.2793 34.4295 22.3508 33.3575 20.6972C32.2855 19.0436 30.7578 17.7356 28.9588 16.9312C27.1598 16.1268 25.1664 15.8602 23.2192 16.1638C21.2721 16.4673 19.4544 17.328 17.9856 18.6419C17.8409 18.769 17.7228 18.9236 17.6382 19.0967C17.5536 19.2697 17.5041 19.4579 17.4925 19.6502C17.481 19.8425 17.5077 20.0352 17.5711 20.2171C17.6345 20.399 17.7333 20.5666 17.8618 20.7101C17.9903 20.8536 18.1459 20.9703 18.3198 21.0533C18.4936 21.1363 18.6822 21.1841 18.8746 21.1938C19.067 21.2036 19.2594 21.1751 19.4407 21.11C19.6221 21.045 19.7887 20.9446 19.931 20.8148C20.9802 19.8765 22.2786 19.262 23.6693 19.0453C25.0601 18.8287 26.4838 19.0192 27.7687 19.5939C29.0536 20.1685 30.1447 21.1028 30.9103 22.2839C31.6759 23.465 32.0833 24.8425 32.0833 26.25C32.0833 26.6368 32.237 27.0077 32.5105 27.2812C32.784 27.5547 33.1549 27.7083 33.5417 27.7083C33.9284 27.7083 34.2994 27.5547 34.5729 27.2812C34.8464 27.0077 35 26.6368 35 26.25ZM25.5208 13.125C24.2229 13.125 22.9541 12.7401 21.8749 12.019C20.7957 11.2979 19.9546 10.273 19.4579 9.07386C18.9612 7.87472 18.8312 6.55522 19.0844 5.28222C19.3376 4.00922 19.9627 2.8399 20.8804 1.92211C21.7982 1.00433 22.9676 0.379315 24.2406 0.1261C25.5136 -0.127116 26.8331 0.00284344 28.0322 0.499544C29.2313 0.996244 30.2563 1.83738 30.9774 2.91657C31.6985 3.99577 32.0833 5.26456 32.0833 6.5625C32.0814 8.30239 31.3894 9.97047 30.1591 11.2008C28.9288 12.431 27.2607 13.1231 25.5208 13.125ZM25.5208 2.91667C24.7998 2.91667 24.0949 3.13049 23.4953 3.5311C22.8958 3.93171 22.4285 4.50111 22.1525 5.1673C21.8766 5.83349 21.8044 6.56655 21.9451 7.27377C22.0857 7.98099 22.433 8.63062 22.9428 9.1405C23.4527 9.65037 24.1023 9.99761 24.8096 10.1383C25.5168 10.279 26.2498 10.2068 26.916 9.93081C27.5822 9.65487 28.1516 9.18757 28.5522 8.58802C28.9528 7.98846 29.1667 7.28358 29.1667 6.5625C29.1667 5.59557 28.7826 4.66824 28.0988 3.98451C27.4151 3.30078 26.4878 2.91667 25.5208 2.91667Z" fill="white"/>
</g>
<defs>
<clipPath id="clip0_340_21">
<rect width="35" height="35" fill="white"/>
</clipPath>
</defs>
</svg>
