<svg width="70" height="70" viewBox="0 0 70 70" fill="none" xmlns="http://www.w3.org/2000/svg">
<g clip-path="url(#clip0_347_112)">
<path d="M35 23.3333C32.6925 23.3333 30.4369 24.0175 28.5183 25.2994C26.5998 26.5814 25.1044 28.4035 24.2214 30.5353C23.3384 32.6671 23.1073 35.0129 23.5575 37.276C24.0077 39.5391 25.1188 41.6179 26.7504 43.2495C28.382 44.8811 30.4608 45.9923 32.7239 46.4424C34.987 46.8926 37.3328 46.6615 39.4646 45.7785C41.5964 44.8955 43.4185 43.4001 44.7005 41.4816C45.9824 39.563 46.6667 37.3074 46.6667 34.9999C46.6667 31.9057 45.4375 28.9383 43.2496 26.7503C41.0616 24.5624 38.0942 23.3333 35 23.3333V23.3333ZM35 40.8333C33.8463 40.8333 32.7184 40.4911 31.7592 39.8502C30.7999 39.2092 30.0522 38.2981 29.6107 37.2322C29.1692 36.1663 29.0537 34.9934 29.2787 33.8619C29.5038 32.7303 30.0594 31.6909 30.8752 30.8751C31.691 30.0593 32.7304 29.5038 33.862 29.2787C34.9935 29.0536 36.1664 29.1691 37.2323 29.6106C38.2982 30.0521 39.2093 30.7998 39.8502 31.7591C40.4912 32.7184 40.8333 33.8462 40.8333 34.9999C40.8333 36.547 40.2187 38.0307 39.1248 39.1247C38.0308 40.2187 36.5471 40.8333 35 40.8333Z" fill="white"/>
<path d="M62.1075 40.5417L60.8125 39.795C61.3955 36.623 61.3955 33.3712 60.8125 30.1992L62.1075 29.4525C63.1034 28.878 63.9763 28.1129 64.6765 27.201C65.3767 26.2891 65.8904 25.2482 66.1883 24.1378C66.4862 23.0274 66.5625 21.8691 66.4128 20.7292C66.2631 19.5893 65.8904 18.49 65.3158 17.4942C64.7413 16.4983 63.9762 15.6254 63.0643 14.9252C62.1524 14.225 61.1116 13.7113 60.0011 13.4133C58.8907 13.1154 57.7325 13.0391 56.5925 13.1888C55.4526 13.3385 54.3534 13.7113 53.3575 14.2858L52.0596 15.0354C49.6082 12.941 46.7911 11.3174 43.75 10.2462V8.75C43.75 6.42935 42.8281 4.20376 41.1872 2.56282C39.5462 0.921872 37.3206 0 35 0C32.6794 0 30.4538 0.921872 28.8128 2.56282C27.1719 4.20376 26.25 6.42935 26.25 8.75V10.2462C23.209 11.3212 20.3929 12.9488 17.9433 15.0471L16.6396 14.2917C14.6284 13.1313 12.2386 12.8175 9.99595 13.4192C7.75333 14.0209 5.84158 15.4888 4.68125 17.5C3.52093 19.5112 3.20709 21.901 3.80877 24.1436C4.41045 26.3863 5.87836 28.298 7.88959 29.4583L9.18459 30.205C8.60157 33.377 8.60157 36.6288 9.18459 39.8008L7.88959 40.5475C5.87836 41.7078 4.41045 43.6196 3.80877 45.8622C3.20709 48.1048 3.52093 50.4946 4.68125 52.5058C5.84158 54.5171 7.75333 55.985 9.99595 56.5866C12.2386 57.1883 14.6284 56.8745 16.6396 55.7142L17.9375 54.9646C20.3897 57.0593 23.2079 58.6829 26.25 59.7537V61.25C26.25 63.5706 27.1719 65.7962 28.8128 67.4372C30.4538 69.0781 32.6794 70 35 70C37.3206 70 39.5462 69.0781 41.1872 67.4372C42.8281 65.7962 43.75 63.5706 43.75 61.25V59.7537C46.7909 58.6788 49.6071 57.0512 52.0567 54.9529L53.3604 55.7054C55.3716 56.8657 57.7614 57.1796 60.004 56.5779C62.2467 55.9762 64.1584 54.5083 65.3187 52.4971C66.4791 50.4859 66.7929 48.0961 66.1912 45.8534C65.5896 43.6108 64.1216 41.6991 62.1104 40.5387L62.1075 40.5417ZM54.6758 29.5283C55.6635 33.1073 55.6635 36.8869 54.6758 40.4658C54.5034 41.0887 54.5427 41.7513 54.7877 42.3494C55.0326 42.9476 55.4693 43.4474 56.0292 43.7704L59.1908 45.5962C59.8611 45.983 60.3503 46.6202 60.5508 47.3677C60.7512 48.1151 60.6466 48.9116 60.2598 49.5819C59.873 50.2521 59.2358 50.7413 58.4884 50.9418C57.7409 51.1423 56.9444 51.0376 56.2742 50.6508L53.1067 48.8192C52.5464 48.4946 51.894 48.3658 51.2524 48.4529C50.6108 48.5401 50.0164 48.8382 49.5629 49.3004C46.9668 51.9507 43.6963 53.8416 40.1042 54.7692C39.4772 54.9304 38.9216 55.2956 38.5251 55.8073C38.1285 56.3189 37.9134 56.948 37.9137 57.5954V61.25C37.9137 62.0235 37.6065 62.7654 37.0595 63.3124C36.5125 63.8594 35.7706 64.1667 34.9971 64.1667C34.2235 64.1667 33.4817 63.8594 32.9347 63.3124C32.3877 62.7654 32.0804 62.0235 32.0804 61.25V57.5983C32.0807 56.9509 31.8657 56.3219 31.4691 55.8102C31.0725 55.2985 30.517 54.9333 29.89 54.7721C26.2977 53.8407 23.028 51.9457 20.4342 49.2917C19.9807 48.8295 19.3863 48.5313 18.7447 48.4442C18.1031 48.357 17.4507 48.4859 16.8904 48.8104L13.7288 50.6392C13.3969 50.8337 13.0299 50.9607 12.6488 51.0128C12.2677 51.0649 11.88 51.0411 11.5082 50.9428C11.1363 50.8445 10.7875 50.6736 10.482 50.4399C10.1764 50.2063 9.9201 49.9145 9.72777 49.5814C9.53545 49.2483 9.41091 48.8804 9.36133 48.4989C9.31175 48.1175 9.33811 47.73 9.43889 47.3588C9.53967 46.9876 9.71288 46.64 9.94856 46.336C10.1842 46.032 10.4777 45.7776 10.8121 45.5875L13.9738 43.7617C14.5336 43.4386 14.9703 42.9388 15.2153 42.3407C15.4602 41.7426 15.4995 41.08 15.3271 40.4571C14.3394 36.8781 14.3394 33.0985 15.3271 29.5196C15.4964 28.898 15.4552 28.2378 15.2099 27.6421C14.9645 27.0464 14.5288 26.5487 13.9708 26.2267L10.8092 24.4008C10.1389 24.0141 9.64971 23.3769 9.44924 22.6294C9.24877 21.882 9.35344 21.0855 9.74021 20.4152C10.127 19.7449 10.7642 19.2557 11.5116 19.0553C12.2591 18.8548 13.0556 18.9595 13.7258 19.3462L16.8933 21.1779C17.4521 21.5032 18.1031 21.6335 18.744 21.5485C19.385 21.4635 19.9795 21.168 20.4342 20.7083C23.0303 18.0581 26.3008 16.1671 29.8929 15.2396C30.5218 15.0779 31.0788 14.7109 31.4756 14.1969C31.8724 13.6828 32.0863 13.051 32.0833 12.4017V8.75C32.0833 7.97645 32.3906 7.23459 32.9376 6.6876C33.4846 6.14062 34.2265 5.83333 35 5.83333C35.7735 5.83333 36.5154 6.14062 37.0624 6.6876C37.6094 7.23459 37.9167 7.97645 37.9167 8.75V12.4017C37.9163 13.049 38.1314 13.6781 38.528 14.1898C38.9246 14.7015 39.4801 15.0667 40.1071 15.2279C43.7004 16.1588 46.9711 18.0538 49.5658 20.7083C50.0193 21.1705 50.6137 21.4687 51.2553 21.5558C51.8969 21.6429 52.5493 21.5141 53.1096 21.1896L56.2712 19.3608C56.6031 19.1663 56.9701 19.0393 57.3512 18.9872C57.7323 18.9351 58.12 18.9589 58.4918 19.0572C58.8637 19.1555 59.2125 19.3264 59.518 19.5601C59.8236 19.7937 60.0799 20.0855 60.2722 20.4186C60.4646 20.7517 60.5891 21.1196 60.6387 21.501C60.6883 21.8825 60.6619 22.27 60.5611 22.6412C60.4603 23.0124 60.2871 23.36 60.0514 23.664C59.8158 23.968 59.5223 24.2224 59.1879 24.4125L56.0262 26.2383C55.4693 26.5612 55.0348 27.0593 54.7906 27.6549C54.5463 28.2506 54.506 28.9103 54.6758 29.5312V29.5283Z" fill="white"/>
</g>
<defs>
<clipPath id="clip0_347_112">
<rect width="70" height="70" fill="white"/>
</clipPath>
</defs>
</svg>
