<svg width="25" height="25" viewBox="0 0 25 25" fill="none" xmlns="http://www.w3.org/2000/svg">
<g clip-path="url(#clip0_305_92)">
<path d="M12.5 8.33331C11.6759 8.33331 10.8703 8.57768 10.1851 9.03552C9.4999 9.49336 8.96585 10.1441 8.65048 10.9055C8.33512 11.6668 8.2526 12.5046 8.41338 13.3129C8.57415 14.1211 8.97098 14.8635 9.5537 15.4463C10.1364 16.029 10.8789 16.4258 11.6871 16.5866C12.4954 16.7474 13.3331 16.6648 14.0945 16.3495C14.8559 16.0341 15.5066 15.5001 15.9644 14.8149C16.4223 14.1297 16.6666 13.3241 16.6666 12.5C16.6666 11.3949 16.2277 10.3351 15.4463 9.5537C14.6649 8.7723 13.6051 8.33331 12.5 8.33331ZM12.5 14.5833C12.0879 14.5833 11.6851 14.4611 11.3425 14.2322C10.9999 14.0033 10.7329 13.6779 10.5752 13.2972C10.4176 12.9166 10.3763 12.4977 10.4567 12.0935C10.5371 11.6894 10.7355 11.3182 11.0268 11.0268C11.3182 10.7355 11.6894 10.5371 12.0935 10.4567C12.4977 10.3763 12.9166 10.4175 13.2972 10.5752C13.6779 10.7329 14.0033 10.9999 14.2322 11.3425C14.4611 11.6851 14.5833 12.0879 14.5833 12.5C14.5833 13.0525 14.3638 13.5824 13.9731 13.9731C13.5824 14.3638 13.0525 14.5833 12.5 14.5833Z" fill="white"/>
<path d="M22.1813 14.4792L21.7188 14.2125C21.927 13.0796 21.927 11.9183 21.7188 10.7854L22.1813 10.5187C22.5369 10.3136 22.8487 10.0403 23.0988 9.71464C23.3488 9.38897 23.5323 9.01722 23.6387 8.62064C23.7451 8.22406 23.7723 7.8104 23.7189 7.40329C23.6654 6.99617 23.5323 6.60358 23.3271 6.24792C23.1219 5.89225 22.8487 5.58049 22.523 5.33042C22.1973 5.08035 21.8256 4.89688 21.429 4.79048C21.0324 4.68408 20.6187 4.65683 20.2116 4.7103C19.8045 4.76376 19.4119 4.89689 19.0563 5.10208L18.5927 5.36979C17.7172 4.62179 16.7111 4.04192 15.625 3.65937V3.125C15.625 2.2962 15.2958 1.50134 14.7097 0.915291C14.1237 0.32924 13.3288 0 12.5 0C11.6712 0 10.8764 0.32924 10.2903 0.915291C9.70425 1.50134 9.37501 2.2962 9.37501 3.125V3.65937C8.28896 4.0433 7.28319 4.62458 6.40835 5.37396L5.94272 5.10417C5.22443 4.68976 4.37093 4.57768 3.56999 4.79256C2.76906 5.00745 2.08629 5.5317 1.67189 6.25C1.25749 6.96829 1.1454 7.82179 1.36029 8.62272C1.57517 9.42366 2.09943 10.1064 2.81772 10.5208L3.28022 10.7875C3.072 11.9204 3.072 13.0817 3.28022 14.2146L2.81772 14.4812C2.09943 14.8956 1.57517 15.5784 1.36029 16.3794C1.1454 17.1803 1.25749 18.0338 1.67189 18.7521C2.08629 19.4704 2.76906 19.9946 3.56999 20.2095C4.37093 20.4244 5.22443 20.3123 5.94272 19.8979L6.40626 19.6302C7.28206 20.3783 8.28853 20.9582 9.37501 21.3406V21.875C9.37501 22.7038 9.70425 23.4987 10.2903 24.0847C10.8764 24.6708 11.6712 25 12.5 25C13.3288 25 14.1237 24.6708 14.7097 24.0847C15.2958 23.4987 15.625 22.7038 15.625 21.875V21.3406C16.7111 20.9567 17.7168 20.3754 18.5917 19.626L19.0573 19.8948C19.7756 20.3092 20.6291 20.4213 21.43 20.2064C22.231 19.9915 22.9137 19.4672 23.3281 18.749C23.7425 18.0307 23.8546 17.1772 23.6397 16.3762C23.4248 15.5753 22.9006 14.8925 22.1823 14.4781L22.1813 14.4792ZM19.5271 10.5458C19.8798 11.824 19.8798 13.1739 19.5271 14.4521C19.4655 14.6745 19.4795 14.9112 19.567 15.1248C19.6545 15.3384 19.8105 15.5169 20.0104 15.6323L21.1396 16.2844C21.379 16.4225 21.5537 16.6501 21.6253 16.917C21.6969 17.184 21.6595 17.4684 21.5214 17.7078C21.3832 17.9472 21.1557 18.1219 20.8887 18.1935C20.6218 18.2651 20.3373 18.2277 20.0979 18.0896L18.9667 17.4354C18.7666 17.3195 18.5336 17.2735 18.3044 17.3046C18.0753 17.3357 17.863 17.4422 17.701 17.6073C16.7739 18.5538 15.6058 19.2291 14.3229 19.5604C14.099 19.618 13.9006 19.7484 13.759 19.9312C13.6173 20.1139 13.5405 20.3386 13.5406 20.5698V21.875C13.5406 22.1513 13.4309 22.4162 13.2355 22.6116C13.0402 22.8069 12.7752 22.9167 12.499 22.9167C12.2227 22.9167 11.9577 22.8069 11.7624 22.6116C11.567 22.4162 11.4573 22.1513 11.4573 21.875V20.5708C11.4574 20.3396 11.3806 20.1149 11.239 19.9322C11.0973 19.7495 10.8989 19.619 10.675 19.5615C9.39204 19.2288 8.22431 18.552 7.29793 17.6042C7.13597 17.4391 6.9237 17.3326 6.69455 17.3015C6.4654 17.2704 6.23241 17.3164 6.0323 17.4323L4.90314 18.0854C4.78463 18.1549 4.65354 18.2002 4.51744 18.2188C4.38133 18.2375 4.24288 18.229 4.11007 18.1938C3.97726 18.1587 3.8527 18.0977 3.74358 18.0143C3.63445 17.9308 3.54291 17.8266 3.47422 17.7076C3.40553 17.5887 3.36105 17.4573 3.34334 17.321C3.32564 17.1848 3.33505 17.0464 3.37104 16.9139C3.40704 16.7813 3.4689 16.6571 3.55307 16.5486C3.63724 16.44 3.74205 16.3491 3.86147 16.2812L4.99064 15.6292C5.19058 15.5138 5.34655 15.3353 5.43403 15.1217C5.52152 14.9081 5.53557 14.6714 5.47397 14.449C5.12122 13.1708 5.12122 11.8209 5.47397 10.5427C5.53446 10.3207 5.51974 10.0849 5.43211 9.87218C5.34449 9.65942 5.18888 9.48167 4.9896 9.36666L3.86043 8.71458C3.62104 8.57645 3.44634 8.34888 3.37474 8.08193C3.30315 7.81498 3.34053 7.53053 3.47866 7.29114C3.61679 7.05176 3.84436 6.87705 4.11131 6.80545C4.37826 6.73386 4.66271 6.77124 4.9021 6.90937L6.03335 7.56354C6.23291 7.6797 6.46541 7.72626 6.69431 7.6959C6.92321 7.66555 7.13554 7.55999 7.29793 7.39583C8.2251 6.44931 9.39316 5.77398 10.6761 5.44271C10.9007 5.38496 11.0996 5.25391 11.2413 5.07031C11.383 4.88672 11.4594 4.66108 11.4583 4.42917V3.125C11.4583 2.84873 11.5681 2.58378 11.7634 2.38843C11.9588 2.19308 12.2237 2.08333 12.5 2.08333C12.7763 2.08333 13.0412 2.19308 13.2366 2.38843C13.4319 2.58378 13.5417 2.84873 13.5417 3.125V4.42917C13.5416 4.66037 13.6184 4.88505 13.76 5.06779C13.9016 5.25054 14.1 5.38097 14.324 5.43854C15.6073 5.77099 16.7754 6.44779 17.7021 7.39583C17.864 7.5609 18.0763 7.66739 18.3055 7.6985C18.5346 7.72962 18.7676 7.68361 18.9677 7.56771L20.0969 6.91458C20.2154 6.8451 20.3465 6.79976 20.4826 6.78115C20.6187 6.76254 20.7571 6.77103 20.89 6.80615C21.0228 6.84126 21.1473 6.9023 21.2564 6.98574C21.3656 7.06919 21.4571 7.1734 21.5258 7.29237C21.5945 7.41133 21.639 7.54272 21.6567 7.67894C21.6744 7.81517 21.665 7.95356 21.629 8.08614C21.593 8.21871 21.5311 8.34286 21.447 8.45143C21.3628 8.56 21.258 8.65085 21.1385 8.71875L20.0094 9.37083C19.8105 9.48615 19.6553 9.66404 19.5681 9.87676C19.4808 10.0895 19.4664 10.3251 19.5271 10.5469V10.5458Z" fill="white"/>
</g>
<defs>
<clipPath id="clip0_305_92">
<rect width="25" height="25" fill="white"/>
</clipPath>
</defs>
</svg>
