<svg width="512" height="512" viewBox="0 0 512 512" fill="none" xmlns="http://www.w3.org/2000/svg">
<g clip-path="url(#clip0_704_25)">
<path d="M405.333 85.3333H320V64C320 47.0261 313.257 30.7475 301.255 18.7452C289.253 6.74284 272.974 0 256 0C239.026 0 222.747 6.74284 210.745 18.7452C198.743 30.7475 192 47.0261 192 64V85.3333H106.667C78.3873 85.3672 51.2759 96.6162 31.2794 116.613C11.2828 136.609 0.0338743 163.721 0 192L0 405.333C0.0338743 433.613 11.2828 460.724 31.2794 480.721C51.2759 500.717 78.3873 511.966 106.667 512H405.333C433.613 511.966 460.724 500.717 480.721 480.721C500.717 460.724 511.966 433.613 512 405.333V192C511.966 163.721 500.717 136.609 480.721 116.613C460.724 96.6162 433.613 85.3672 405.333 85.3333V85.3333ZM213.333 384C213.333 389.658 211.086 395.084 207.085 399.085C203.084 403.086 197.658 405.333 192 405.333H85.3333C79.6754 405.333 74.2492 403.086 70.2484 399.085C66.2476 395.084 64 389.658 64 384V213.333C64 207.675 66.2476 202.249 70.2484 198.248C74.2492 194.248 79.6754 192 85.3333 192H192C197.658 192 203.084 194.248 207.085 198.248C211.086 202.249 213.333 207.675 213.333 213.333V384ZM256 128C250.342 128 244.916 125.752 240.915 121.752C236.914 117.751 234.667 112.325 234.667 106.667V64C234.667 58.342 236.914 52.9158 240.915 48.9151C244.916 44.9143 250.342 42.6667 256 42.6667C261.658 42.6667 267.084 44.9143 271.085 48.9151C275.086 52.9158 277.333 58.342 277.333 64V106.667C277.333 112.325 275.086 117.751 271.085 121.752C267.084 125.752 261.658 128 256 128ZM384 405.333H298.667C293.009 405.333 287.583 403.086 283.582 399.085C279.581 395.084 277.333 389.658 277.333 384C277.333 378.342 279.581 372.916 283.582 368.915C287.583 364.914 293.009 362.667 298.667 362.667H384C389.658 362.667 395.084 364.914 399.085 368.915C403.086 372.916 405.333 378.342 405.333 384C405.333 389.658 403.086 395.084 399.085 399.085C395.084 403.086 389.658 405.333 384 405.333ZM426.667 320H298.667C293.009 320 287.583 317.752 283.582 313.752C279.581 309.751 277.333 304.325 277.333 298.667C277.333 293.009 279.581 287.583 283.582 283.582C287.583 279.581 293.009 277.333 298.667 277.333H426.667C432.325 277.333 437.751 279.581 441.752 283.582C445.752 287.583 448 293.009 448 298.667C448 304.325 445.752 309.751 441.752 313.752C437.751 317.752 432.325 320 426.667 320ZM426.667 234.667H298.667C293.009 234.667 287.583 232.419 283.582 228.418C279.581 224.418 277.333 218.991 277.333 213.333C277.333 207.675 279.581 202.249 283.582 198.248C287.583 194.248 293.009 192 298.667 192H426.667C432.325 192 437.751 194.248 441.752 198.248C445.752 202.249 448 207.675 448 213.333C448 218.991 445.752 224.418 441.752 228.418C437.751 232.419 432.325 234.667 426.667 234.667ZM106.667 234.667H170.667V362.667H106.667V234.667Z" fill="white"/>
</g>
<defs>
<clipPath id="clip0_704_25">
<rect width="512" height="512" fill="white"/>
</clipPath>
</defs>
</svg>
