<?xml version="1.0"?>
<svg xmlns="http://www.w3.org/2000/svg" xmlns:xlink="http://www.w3.org/1999/xlink" xmlns:svgjs="http://svgjs.com/svgjs" version="1.1" width="512" height="512" x="0" y="0" viewBox="0 0 24 24" style="enable-background:new 0 0 512 512" xml:space="preserve"><g><path xmlns="http://www.w3.org/2000/svg" d="m21 4h-6v-1a3 3 0 0 0 -6 0v1h-6a3 3 0 0 0 -3 3v17h24v-17a3 3 0 0 0 -3-3zm-10-1a1 1 0 0 1 2 0v3h-2zm11 19h-20v-15a1 1 0 0 1 1-1h6v2h6v-2h6a1 1 0 0 1 1 1zm-18-2h7v-10h-7zm2-8h3v6h-3zm7 2h7v2h-7zm0-4h7v2h-7zm0 8h5v2h-5z" fill="#ffffff" data-original="#000000"/></g></svg>
