<svg width="20" height="20" viewBox="0 0 20 20" fill="none" xmlns="http://www.w3.org/2000/svg">
<g clip-path="url(#clip0_455_19)">
<path d="M9.9999 0C7.34861 0.00286757 4.80674 1.05736 2.93199 2.9321C1.05725 4.80684 0.00276267 7.34872 -0.000104898 10C-0.105105 17.9775 9.29906 22.8575 15.7499 18.1808C15.8426 18.1192 15.922 18.0396 15.9834 17.9467C16.0448 17.8538 16.087 17.7496 16.1075 17.6402C16.128 17.5307 16.1263 17.4183 16.1026 17.3095C16.0789 17.2007 16.0336 17.0978 15.9694 17.0068C15.9053 16.9158 15.8236 16.8386 15.7291 16.7797C15.6346 16.7208 15.5292 16.6815 15.4193 16.664C15.3093 16.6465 15.197 16.6512 15.0889 16.6779C14.9808 16.7045 14.8791 16.7526 14.7899 16.8192C9.41656 20.7133 1.58323 16.6483 1.66656 10C2.12406 -1.055 17.8774 -1.0525 18.3332 10V11.6667C18.3332 12.1087 18.1576 12.5326 17.8451 12.8452C17.5325 13.1577 17.1086 13.3333 16.6666 13.3333C16.2245 13.3333 15.8006 13.1577 15.4881 12.8452C15.1755 12.5326 14.9999 12.1087 14.9999 11.6667V10C14.7899 3.3925 5.20906 3.39333 4.9999 10C5.00959 11.0133 5.32611 11.9999 5.90771 12.8298C6.48932 13.6597 7.30873 14.2938 8.25794 14.6487C9.20715 15.0036 10.2416 15.0625 11.225 14.8177C12.2083 14.5729 13.0945 14.0359 13.7666 13.2775C14.1281 13.9155 14.6899 14.4165 15.365 14.7029C16.0401 14.9893 16.7907 15.0451 17.5007 14.8616C18.2107 14.6781 18.8404 14.2656 19.2922 13.688C19.744 13.1104 19.9928 12.4 19.9999 11.6667V10C19.997 7.34872 18.9425 4.80684 17.0678 2.9321C15.1931 1.05736 12.6512 0.00286757 9.9999 0V0ZM9.9999 13.3333C9.11584 13.3333 8.26799 12.9821 7.64287 12.357C7.01775 11.7319 6.66656 10.8841 6.66656 10C6.66656 9.11595 7.01775 8.2681 7.64287 7.64298C8.26799 7.01786 9.11584 6.66667 9.9999 6.66667C10.884 6.66667 11.7318 7.01786 12.3569 7.64298C12.982 8.2681 13.3332 9.11595 13.3332 10C13.3332 10.8841 12.982 11.7319 12.3569 12.357C11.7318 12.9821 10.884 13.3333 9.9999 13.3333Z" fill="white"/>
</g>
<defs>
<clipPath id="clip0_455_19">
<rect width="20" height="20" fill="white"/>
</clipPath>
</defs>
</svg>
