<svg width="35" height="35" viewBox="0 0 35 35" fill="none" xmlns="http://www.w3.org/2000/svg">
<g clip-path="url(#clip0_347_255)">
<path d="M23.3334 11.6666C23.0599 11.3932 22.689 11.2396 22.3023 11.2396C21.9156 11.2396 21.5448 11.3932 21.2713 11.6666L17.5 15.4379L13.7288 11.6666C13.4537 11.401 13.0854 11.254 12.703 11.2573C12.3206 11.2606 11.9548 11.414 11.6845 11.6844C11.4141 11.9548 11.2607 12.3205 11.2574 12.7029C11.2541 13.0853 11.401 13.4536 11.6667 13.7287L15.4379 17.4999L11.6667 21.2712C11.401 21.5462 11.2541 21.9146 11.2574 22.297C11.2607 22.6794 11.4141 23.0451 11.6845 23.3155C11.9548 23.5859 12.3206 23.7393 12.703 23.7426C13.0854 23.7459 13.4537 23.5989 13.7288 23.3333L17.5 19.562L21.2713 23.3333C21.5463 23.5989 21.9147 23.7459 22.2971 23.7426C22.6794 23.7393 23.0452 23.5859 23.3156 23.3155C23.586 23.0451 23.7394 22.6794 23.7427 22.297C23.746 21.9146 23.599 21.5462 23.3334 21.2712L19.5621 17.4999L23.3334 13.7287C23.6068 13.4552 23.7603 13.0843 23.7603 12.6976C23.7603 12.3109 23.6068 11.9401 23.3334 11.6666Z" fill="white"/>
<path d="M17.5 0C14.0388 0 10.6554 1.02636 7.77753 2.94928C4.89967 4.87221 2.65665 7.60533 1.33212 10.803C0.00758251 14.0007 -0.338976 17.5194 0.336265 20.9141C1.01151 24.3087 2.67822 27.4269 5.12564 29.8744C7.57306 32.3218 10.6913 33.9885 14.0859 34.6637C17.4806 35.339 20.9993 34.9924 24.197 33.6679C27.3947 32.3434 30.1278 30.1003 32.0507 27.2225C33.9736 24.3446 35 20.9612 35 17.5C34.995 12.8602 33.1496 8.41197 29.8688 5.13117C26.588 1.85037 22.1398 0.00501824 17.5 0V0ZM17.5 32.0833C14.6157 32.0833 11.7962 31.228 9.39794 29.6256C6.99972 28.0232 5.13054 25.7456 4.02676 23.0808C2.92299 20.416 2.63419 17.4838 3.19689 14.6549C3.75959 11.826 5.14852 9.22754 7.18803 7.18802C9.22755 5.14851 11.8261 3.75958 14.6549 3.19688C17.4838 2.63418 20.4161 2.92298 23.0808 4.02676C25.7456 5.13053 28.0232 6.99972 29.6256 9.39793C31.228 11.7961 32.0833 14.6157 32.0833 17.5C32.0791 21.3664 30.5413 25.0733 27.8073 27.8073C25.0733 30.5413 21.3664 32.0791 17.5 32.0833Z" fill="white"/>
</g>
<defs>
<clipPath id="clip0_347_255">
<rect width="35" height="35" fill="white"/>
</clipPath>
</defs>
</svg>
