<svg width="25" height="25" viewBox="0 0 25 25" fill="none" xmlns="http://www.w3.org/2000/svg">
<g clip-path="url(#clip0_305_58)">
<path d="M24.9999 23.9583C24.9999 24.2346 24.8902 24.4995 24.6949 24.6949C24.4995 24.8902 24.2345 25 23.9583 25H1.04164C0.765369 25 0.500417 24.8902 0.305067 24.6949C0.109716 24.4995 -3.03008e-05 24.2346 -3.03008e-05 23.9583C-3.03008e-05 23.682 0.109716 23.4171 0.305067 23.2217C0.500417 23.0264 0.765369 22.9166 1.04164 22.9166H23.9583C24.2345 22.9166 24.4995 23.0264 24.6949 23.2217C24.8902 23.4171 24.9999 23.682 24.9999 23.9583ZM0.303094 8.90832C0.0786387 8.49199 -0.0253484 8.02135 0.00280347 7.54921C0.0309553 7.07707 0.190132 6.62212 0.462469 6.23541C0.907529 5.58241 1.50356 5.04641 2.19997 4.67291L10.0135 0.606246C10.7815 0.206904 11.6344 -0.00158691 12.5 -0.00158691C13.3656 -0.00158691 14.2184 0.206904 14.9864 0.606246L22.7989 4.67603C23.4953 5.04954 24.0913 5.58553 24.5364 6.23853C24.8087 6.62524 24.9679 7.08019 24.9961 7.55233C25.0242 8.02448 24.9202 8.49512 24.6958 8.91145C24.4541 9.36856 24.0917 9.75062 23.648 10.016C23.2042 10.2814 22.6962 10.42 22.1791 10.4167H21.8749V18.75H22.9166C23.1929 18.75 23.4578 18.8597 23.6532 19.0551C23.8485 19.2504 23.9583 19.5154 23.9583 19.7916C23.9583 20.0679 23.8485 20.3329 23.6532 20.5282C23.4578 20.7236 23.1929 20.8333 22.9166 20.8333H2.0833C1.80703 20.8333 1.54208 20.7236 1.34673 20.5282C1.15138 20.3329 1.04164 20.0679 1.04164 19.7916C1.04164 19.5154 1.15138 19.2504 1.34673 19.0551C1.54208 18.8597 1.80703 18.75 2.0833 18.75H3.12497V10.4167H2.8208C2.30326 10.4199 1.79477 10.2809 1.35079 10.015C0.906814 9.74897 0.544405 9.36618 0.303094 8.90832ZM5.2083 18.75H8.33329V10.4167H5.2083V18.75ZM10.4166 10.4167V18.75H14.5833V10.4167H10.4166ZM19.7916 10.4167H16.6666V18.75H19.7916V10.4167ZM2.14893 7.9427C2.21428 8.0632 2.31154 8.16339 2.43005 8.23229C2.54856 8.30119 2.68375 8.33614 2.8208 8.33332H22.1791C22.3162 8.33614 22.4514 8.30119 22.5699 8.23229C22.6884 8.16339 22.7856 8.0632 22.851 7.9427C22.8986 7.86308 22.9216 7.77117 22.9172 7.67851C22.9127 7.58584 22.881 7.49656 22.826 7.42187C22.5736 7.04677 22.2345 6.73805 21.8375 6.52187L14.025 2.45208C13.5541 2.20773 13.0315 2.08017 12.501 2.08017C11.9705 2.08017 11.4479 2.20773 10.977 2.45208L3.16455 6.52187C2.76766 6.73875 2.42864 7.04776 2.17601 7.42291C2.12089 7.49729 2.08893 7.58627 2.08411 7.67872C2.07929 7.77117 2.10184 7.86299 2.14893 7.9427Z" fill="white"/>
</g>
<defs>
<clipPath id="clip0_305_58">
<rect width="25" height="25" fill="white"/>
</clipPath>
</defs>
</svg>
