<svg width="25" height="25" viewBox="0 0 25 25" fill="none" xmlns="http://www.w3.org/2000/svg">
<g clip-path="url(#clip0_305_20)">
<path d="M19.7917 5.20833H17.6042C17.3624 4.03271 16.7227 2.97639 15.793 2.21741C14.8632 1.45842 13.7002 1.04317 12.5 1.04166H5.20833C3.8275 1.04331 2.50371 1.59258 1.52731 2.56897C0.550919 3.54536 0.00165402 4.86916 0 6.24999L0 15.625C0.00261855 16.5579 0.318268 17.463 0.896392 18.1953C1.47451 18.9275 2.28166 19.4445 3.18854 19.6635C3.09038 20.1848 3.10715 20.7213 3.2377 21.2354C3.36824 21.7496 3.60941 22.2291 3.94437 22.6404C4.27933 23.0517 4.70002 23.385 5.17707 23.617C5.65412 23.8489 6.17605 23.974 6.70642 23.9835C7.2368 23.9929 7.76285 23.8865 8.24787 23.6717C8.73289 23.4569 9.16518 23.1388 9.51459 22.7397C9.864 22.3405 10.1221 21.87 10.2709 21.3608C10.4197 20.8516 10.4556 20.3161 10.376 19.7917H14.6281C14.6013 19.964 14.587 20.1381 14.5854 20.3125C14.5854 21.2794 14.9695 22.2068 15.6533 22.8905C16.337 23.5742 17.2643 23.9583 18.2312 23.9583C19.1982 23.9583 20.1255 23.5742 20.8092 22.8905C21.493 22.2068 21.8771 21.2794 21.8771 20.3125C21.8759 20.0947 21.8546 19.8774 21.8135 19.6635C22.72 19.4441 23.5267 18.9269 24.1044 18.1947C24.6821 17.4625 24.9975 16.5577 25 15.625V10.4167C24.9983 9.03583 24.4491 7.71203 23.4727 6.73564C22.4963 5.75924 21.1725 5.20998 19.7917 5.20833ZM22.9167 10.4167V11.4583H17.7083V7.29166H19.7917C20.6205 7.29166 21.4153 7.6209 22.0014 8.20695C22.5874 8.793 22.9167 9.58786 22.9167 10.4167ZM2.08333 15.625V6.24999C2.08333 5.42119 2.41257 4.62633 2.99862 4.04028C3.58468 3.45423 4.37953 3.12499 5.20833 3.12499H12.5C13.3288 3.12499 14.1237 3.45423 14.7097 4.04028C15.2958 4.62633 15.625 5.42119 15.625 6.24999V17.7083H4.16667C3.61413 17.7083 3.08423 17.4888 2.69353 17.0981C2.30283 16.7074 2.08333 16.1775 2.08333 15.625ZM8.33333 20.3125C8.33333 20.7269 8.16871 21.1243 7.87569 21.4174C7.58266 21.7104 7.18523 21.875 6.77083 21.875C6.35643 21.875 5.959 21.7104 5.66598 21.4174C5.37295 21.1243 5.20833 20.7269 5.20833 20.3125C5.20897 20.1345 5.24179 19.958 5.30521 19.7917H8.23646C8.29987 19.958 8.33269 20.1345 8.33333 20.3125ZM18.2292 21.875C17.8148 21.875 17.4173 21.7104 17.1243 21.4174C16.8313 21.1243 16.6667 20.7269 16.6667 20.3125C16.6671 20.1345 16.6999 19.958 16.7635 19.7917H19.6948C19.7584 19.958 19.7912 20.1345 19.7917 20.3125C19.7917 20.7269 19.627 21.1243 19.334 21.4174C19.041 21.7104 18.6436 21.875 18.2292 21.875ZM20.8333 17.7083H17.7083V13.5417H22.9167V15.625C22.9167 16.1775 22.6972 16.7074 22.3065 17.0981C21.9158 17.4888 21.3859 17.7083 20.8333 17.7083Z" fill="white"/>
</g>
<defs>
<clipPath id="clip0_305_20">
<rect width="25" height="25" fill="white"/>
</clipPath>
</defs>
</svg>
