<svg width="25" height="25" viewBox="0 0 25 25" xmlns="http://www.w3.org/2000/svg">
<g clip-path="url(#clip0_305_5)">
<path d="M24.0844 9.44689L16.1833 1.54481C15.2055 0.569794 13.8809 0.0222778 12.5 0.0222778C11.1191 0.0222778 9.79455 0.569794 8.81667 1.54481L0.915637 9.44689C0.624414 9.73625 0.393523 10.0805 0.236348 10.4598C0.0791742 10.839 -0.00115667 11.2457 1.25828e-05 11.6563V21.8823C1.25828e-05 22.7111 0.329253 23.506 0.915303 24.092C1.50135 24.6781 2.29621 25.0073 3.12501 25.0073H21.875C22.7038 25.0073 23.4987 24.6781 24.0847 24.092C24.6708 23.506 25 22.7111 25 21.8823V11.6563C25.0012 11.2457 24.9208 10.839 24.7637 10.4598C24.6065 10.0805 24.3756 9.73625 24.0844 9.44689V9.44689ZM15.625 22.924H9.37501V18.8261C9.37501 17.9973 9.70425 17.2024 10.2903 16.6163C10.8763 16.0303 11.6712 15.7011 12.5 15.7011C13.3288 15.7011 14.1237 16.0303 14.7097 16.6163C15.2958 17.2024 15.625 17.9973 15.625 18.8261V22.924ZM22.9167 21.8823C22.9167 22.1586 22.8069 22.4235 22.6116 22.6189C22.4162 22.8142 22.1513 22.924 21.875 22.924H17.7083V18.8261C17.7083 17.4447 17.1596 16.12 16.1829 15.1432C15.2061 14.1665 13.8813 13.6177 12.5 13.6177C11.1187 13.6177 9.79391 14.1665 8.81716 15.1432C7.84041 16.12 7.29167 17.4447 7.29167 18.8261V22.924H3.12501C2.84874 22.924 2.58379 22.8142 2.38844 22.6189C2.19309 22.4235 2.08334 22.1586 2.08334 21.8823V11.6563C2.08431 11.3802 2.19396 11.1156 2.38855 10.9198L10.2896 3.02085C10.8768 2.4364 11.6715 2.10829 12.5 2.10829C13.3285 2.10829 14.1232 2.4364 14.7104 3.02085L22.6115 10.9229C22.8053 11.118 22.9149 11.3813 22.9167 11.6563V21.8823Z" fill="white"/>
</g>
<defs>
<clipPath id="clip0_305_5">
<rect width="25" height="25" fill="white"/>
</clipPath>
</defs>
</svg>
