<svg width="25" height="25" viewBox="0 0 25 25" fill="none" xmlns="http://www.w3.org/2000/svg">
<g clip-path="url(#clip0_305_68)">
<path d="M13.5417 2.13646V1.04167C13.5417 0.765399 13.4319 0.500447 13.2366 0.305097C13.0412 0.109747 12.7763 0 12.5 0C12.2237 0 11.9588 0.109747 11.7634 0.305097C11.5681 0.500447 11.4583 0.765399 11.4583 1.04167V2.13646C9.36121 2.32447 7.35669 3.08771 5.66561 4.3421C3.97453 5.59649 2.66252 7.29334 1.87415 9.24571C1.08577 11.1981 0.851617 13.3302 1.19749 15.4071C1.54336 17.484 2.45583 19.4252 3.83437 21.0167C3.28996 21.286 2.83503 21.7069 2.52436 22.2289C2.21368 22.7508 2.06053 23.3514 2.08333 23.9583C2.08333 24.2346 2.19308 24.4995 2.38843 24.6949C2.58378 24.8903 2.84873 25 3.125 25C3.40126 25 3.66621 24.8903 3.86157 24.6949C4.05692 24.4995 4.16666 24.2346 4.16666 23.9583C4.158 23.6373 4.27327 23.3252 4.48856 23.0868C4.70384 22.8484 5.00262 22.7021 5.32291 22.6781C5.39456 22.6645 5.46445 22.6428 5.53125 22.6135C7.52659 24.1611 9.98003 25.0011 12.5052 25.0011C15.0304 25.0011 17.4838 24.1611 19.4792 22.6135C19.5401 22.6416 19.6036 22.6639 19.6687 22.6802C19.9902 22.7021 20.2907 22.8473 20.5077 23.0854C20.7247 23.3236 20.8413 23.6363 20.8333 23.9583C20.8333 24.2346 20.9431 24.4995 21.1384 24.6949C21.3338 24.8903 21.5987 25 21.875 25C22.1513 25 22.4162 24.8903 22.6116 24.6949C22.8069 24.4995 22.9167 24.2346 22.9167 23.9583C22.9395 23.3514 22.7863 22.7508 22.4756 22.2289C22.165 21.7069 21.71 21.286 21.1656 21.0167C22.5442 19.4252 23.4566 17.484 23.8025 15.4071C24.1484 13.3302 23.9142 11.1981 23.1258 9.24571C22.3375 7.29334 21.0255 5.59649 19.3344 4.3421C17.6433 3.08771 15.6388 2.32447 13.5417 2.13646ZM3.125 13.5417C3.125 11.6875 3.67483 9.8749 4.70497 8.33319C5.73511 6.79148 7.19928 5.58987 8.91234 4.8803C10.6254 4.17072 12.5104 3.98507 14.329 4.3468C16.1475 4.70854 17.818 5.60142 19.1291 6.91254C20.4402 8.22366 21.3331 9.89412 21.6949 11.7127C22.0566 13.5313 21.8709 15.4163 21.1614 17.1293C20.4518 18.8424 19.2502 20.3066 17.7085 21.3367C16.1668 22.3668 14.3542 22.9167 12.5 22.9167C10.0145 22.9136 7.63172 21.9249 5.87422 20.1674C4.11672 18.4099 3.12803 16.0271 3.125 13.5417Z" fill="white"/>
<path d="M20.0156 1.2957e-05C19.7393 1.2957e-05 19.4744 0.10976 19.279 0.30511C19.0837 0.500461 18.9739 0.765413 18.9739 1.04168C18.9739 1.31795 19.0837 1.5829 19.279 1.77825C19.4744 1.9736 19.7393 2.08335 20.0156 2.08335C20.3788 2.05574 20.7439 2.10197 21.0888 2.21927C21.4337 2.33656 21.7512 2.52249 22.0223 2.76583C22.2934 3.00917 22.5124 3.3049 22.6661 3.63517C22.8198 3.96544 22.905 4.32342 22.9166 4.68752C22.9166 4.96378 23.0264 5.22873 23.2217 5.42409C23.4171 5.61944 23.682 5.72918 23.9583 5.72918C24.2346 5.72918 24.4995 5.61944 24.6949 5.42409C24.8902 5.22873 25 4.96378 25 4.68752C24.9866 4.05053 24.8464 3.4226 24.5875 2.84046C24.3286 2.25832 23.9562 1.73367 23.492 1.29718C23.0279 0.860704 22.4814 0.521166 21.8845 0.298434C21.2876 0.0757022 20.6522 -0.0257499 20.0156 1.2957e-05Z" fill="white"/>
<path d="M2.08333 4.68752C2.09494 4.32342 2.18017 3.96544 2.33387 3.63517C2.48758 3.3049 2.70657 3.00917 2.97766 2.76583C3.24874 2.52249 3.5663 2.33656 3.91119 2.21927C4.25607 2.10197 4.62114 2.05574 4.98437 2.08335C5.26064 2.08335 5.52559 1.9736 5.72094 1.77825C5.9163 1.5829 6.02604 1.31795 6.02604 1.04168C6.02604 0.765413 5.9163 0.500461 5.72094 0.30511C5.52559 0.10976 5.26064 1.2957e-05 4.98437 1.2957e-05C4.34777 -0.0257499 3.71242 0.0757022 3.1155 0.298434C2.51858 0.521166 1.97207 0.860704 1.50794 1.29718C1.04382 1.73367 0.671403 2.25832 0.41248 2.84046C0.153557 3.4226 0.0133294 4.05053 0 4.68752C0 4.96378 0.109747 5.22873 0.305097 5.42409C0.500448 5.61944 0.765399 5.72918 1.04167 5.72918C1.31793 5.72918 1.58289 5.61944 1.77824 5.42409C1.97359 5.22873 2.08333 4.96378 2.08333 4.68752Z" fill="white"/>
<path d="M13.5416 12.0688V7.29167C13.5416 7.0154 13.4319 6.75045 13.2365 6.5551C13.0412 6.35975 12.7762 6.25 12.5 6.25C12.2237 6.25 11.9588 6.35975 11.7634 6.5551C11.5681 6.75045 11.4583 7.0154 11.4583 7.29167V12.5C11.4584 12.7762 11.5682 13.0412 11.7635 13.2365L14.8885 16.3615C15.085 16.5512 15.3481 16.6562 15.6212 16.6538C15.8944 16.6515 16.1556 16.5419 16.3487 16.3488C16.5419 16.1556 16.6514 15.8944 16.6538 15.6213C16.6562 15.3481 16.5512 15.085 16.3614 14.8885L13.5416 12.0688Z" fill="white"/>
</g>
<defs>
<clipPath id="clip0_305_68">
<rect width="25" height="25" fill="white"/>
</clipPath>
</defs>
</svg>
