<svg width="35" height="35" viewBox="0 0 35 35" fill="none" xmlns="http://www.w3.org/2000/svg">
<g clip-path="url(#clip0_347_252)">
<path d="M34.5843 3.33229C34.3074 3.0564 33.9325 2.90149 33.5416 2.90149C33.1508 2.90149 32.7758 3.0564 32.4989 3.33229L25.5514 10.2798L25.0848 9.82332C23.8544 8.62159 22.2394 7.89262 20.5243 7.76483C18.8092 7.63705 17.104 8.11864 15.7091 9.12478C13.696 10.6429 11.4582 11.8376 9.07664 12.6656L6.05205 13.5523C5.0692 13.8408 4.15758 14.3317 3.37574 14.9935C2.59391 15.6553 1.95915 16.4733 1.51226 17.395C1.07273 18.3042 0.827921 19.2951 0.793517 20.3044C0.759113 21.3137 0.93587 22.319 1.31247 23.256C2.73985 26.7601 5.18684 29.7546 8.33627 31.8514C11.4857 33.9482 15.1924 35.0508 18.9758 35.016H20.3233C20.6248 35.0158 20.919 34.9232 21.1662 34.7506C23.7332 33.075 25.927 30.8881 27.6107 28.3265C29.2944 25.7648 30.4317 22.8835 30.9516 19.8625C31.1325 18.7073 31.0345 17.5257 30.6659 16.4161C30.2973 15.3065 29.6688 14.3011 28.8327 13.4837L27.666 12.3404L34.5887 5.4177C34.864 5.14023 35.0181 4.76497 35.0173 4.37409C35.0165 3.98322 34.8608 3.6086 34.5843 3.33229ZM19.845 32.0614H18.97C16.8152 32.0644 14.6807 31.6447 12.6875 30.8262L12.7035 30.8175C15.254 29.5378 17.4374 27.6309 19.0487 25.2758L19.8041 24.166C20.0242 23.8431 20.107 23.4459 20.0342 23.0619C19.9615 22.678 19.7392 22.3386 19.4162 22.1185C19.0933 21.8984 18.6961 21.8157 18.3121 21.8884C17.9281 21.9612 17.5888 22.1835 17.3687 22.5064L16.6133 23.6162C15.2821 25.5581 13.4797 27.1302 11.375 28.1852L9.55059 29.1039C8.09098 28.0779 6.81708 26.8104 5.78372 25.356C8.1739 24.5519 10.3546 23.2247 12.1668 21.471C12.4465 21.1976 12.606 20.8242 12.6104 20.4331C12.6148 20.0421 12.4636 19.6652 12.1902 19.3856C11.9167 19.106 11.5434 18.9464 11.1523 18.942C10.7612 18.9377 10.3844 19.0888 10.1048 19.3623C8.47272 20.9436 6.48085 22.1047 4.30059 22.7456C4.21164 22.5487 4.11539 22.3562 4.03518 22.1535C3.80932 21.5989 3.70358 21.0026 3.72495 20.4041C3.74632 19.8056 3.8943 19.2184 4.15914 18.6812C4.42725 18.1297 4.8075 17.6401 5.27556 17.2439C5.74363 16.8476 6.28923 16.5534 6.87747 16.38L9.90059 15.4933C11.6549 14.9298 13.333 14.1519 14.8968 13.1775L26.4395 24.4241C24.9059 27.4771 22.6403 30.1029 19.845 32.0673V32.0614ZM28.0408 19.3987C27.9293 20.081 27.7789 20.7564 27.5902 21.4214L17.4241 11.5208C18.1699 10.9848 19.0651 10.6961 19.9835 10.6954C21.1197 10.694 22.211 11.1386 23.0227 11.9335L26.7691 15.5925C27.2693 16.0808 27.6456 16.6814 27.8668 17.3445C28.088 18.0075 28.1477 18.7138 28.0408 19.4046V19.3987Z" fill="white"/>
</g>
<defs>
<clipPath id="clip0_347_252">
<rect width="35" height="35" fill="white"/>
</clipPath>
</defs>
</svg>
