<svg width="70" height="70" viewBox="0 0 70 70" fill="none" xmlns="http://www.w3.org/2000/svg">
<g clip-path="url(#clip0_346_70)">
<path d="M20.4167 17.5H67.0833C67.8569 17.5 68.5987 17.1927 69.1457 16.6457C69.6927 16.0987 70 15.3568 70 14.5833C70 13.8097 69.6927 13.0679 69.1457 12.5209C68.5987 11.9739 67.8569 11.6666 67.0833 11.6666H20.4167C19.6431 11.6666 18.9013 11.9739 18.3543 12.5209C17.8073 13.0679 17.5 13.8097 17.5 14.5833C17.5 15.3568 17.8073 16.0987 18.3543 16.6457C18.9013 17.1927 19.6431 17.5 20.4167 17.5Z" fill="white"/>
<path d="M67.0833 32.0834H20.4167C19.6431 32.0834 18.9013 32.3907 18.3543 32.9376C17.8073 33.4846 17.5 34.2265 17.5 35C17.5 35.7736 17.8073 36.5155 18.3543 37.0624C18.9013 37.6094 19.6431 37.9167 20.4167 37.9167H67.0833C67.8569 37.9167 68.5987 37.6094 69.1457 37.0624C69.6927 36.5155 70 35.7736 70 35C70 34.2265 69.6927 33.4846 69.1457 32.9376C68.5987 32.3907 67.8569 32.0834 67.0833 32.0834Z" fill="white"/>
<path d="M67.0833 52.5H20.4167C19.6431 52.5 18.9013 52.8073 18.3543 53.3543C17.8073 53.9013 17.5 54.6431 17.5 55.4167C17.5 56.1902 17.8073 56.9321 18.3543 57.4791C18.9013 58.0261 19.6431 58.3333 20.4167 58.3333H67.0833C67.8569 58.3333 68.5987 58.0261 69.1457 57.4791C69.6927 56.9321 70 56.1902 70 55.4167C70 54.6431 69.6927 53.9013 69.1457 53.3543C68.5987 52.8073 67.8569 52.5 67.0833 52.5Z" fill="white"/>
<path d="M5.83333 20.4167C9.05499 20.4167 11.6667 17.805 11.6667 14.5833C11.6667 11.3617 9.05499 8.75 5.83333 8.75C2.61167 8.75 0 11.3617 0 14.5833C0 17.805 2.61167 20.4167 5.83333 20.4167Z" fill="white"/>
<path d="M5.83333 40.8333C9.05499 40.8333 11.6667 38.2216 11.6667 35C11.6667 31.7783 9.05499 29.1666 5.83333 29.1666C2.61167 29.1666 0 31.7783 0 35C0 38.2216 2.61167 40.8333 5.83333 40.8333Z" fill="white"/>
<path d="M5.83333 61.25C9.05499 61.25 11.6667 58.6384 11.6667 55.4167C11.6667 52.195 9.05499 49.5834 5.83333 49.5834C2.61167 49.5834 0 52.195 0 55.4167C0 58.6384 2.61167 61.25 5.83333 61.25Z" fill="white"/>
</g>
<defs>
<clipPath id="clip0_346_70">
<rect width="70" height="70" fill="white"/>
</clipPath>
</defs>
</svg>
