<svg width="25" height="25" viewBox="0 0 25 25" fill="none" xmlns="http://www.w3.org/2000/svg">
<path d="M20.8333 0H4.16667C3.0616 0 2.00179 0.438987 1.22039 1.22039C0.438987 2.00179 0 3.0616 0 4.16667L0 16.6667C0 17.7717 0.438987 18.8315 1.22039 19.6129C2.00179 20.3943 3.0616 20.8333 4.16667 20.8333H7.1875L11.824 24.7531C12.012 24.9123 12.2505 24.9997 12.4969 24.9997C12.7433 24.9997 12.9817 24.9123 13.1698 24.7531L17.8125 20.8333H20.8333C21.9384 20.8333 22.9982 20.3943 23.7796 19.6129C24.561 18.8315 25 17.7717 25 16.6667V4.16667C25 3.0616 24.561 2.00179 23.7796 1.22039C22.9982 0.438987 21.9384 0 20.8333 0V0ZM22.9167 16.6667C22.9167 17.2192 22.6972 17.7491 22.3065 18.1398C21.9158 18.5305 21.3859 18.75 20.8333 18.75H17.8125C17.3201 18.7502 16.8437 18.9247 16.4677 19.2427L12.5 22.5938L8.53437 19.2427C8.15788 18.9242 7.68062 18.7497 7.1875 18.75H4.16667C3.61413 18.75 3.08423 18.5305 2.69353 18.1398C2.30283 17.7491 2.08333 17.2192 2.08333 16.6667V4.16667C2.08333 3.61413 2.30283 3.08423 2.69353 2.69353C3.08423 2.30283 3.61413 2.08333 4.16667 2.08333H20.8333C21.3859 2.08333 21.9158 2.30283 22.3065 2.69353C22.6972 3.08423 22.9167 3.61413 22.9167 4.16667V16.6667Z" fill="white"/>
<path d="M7.29167 7.29165H12.5C12.7763 7.29165 13.0412 7.1819 13.2366 6.98655C13.4319 6.7912 13.5417 6.52625 13.5417 6.24998C13.5417 5.97371 13.4319 5.70876 13.2366 5.51341C13.0412 5.31806 12.7763 5.20831 12.5 5.20831H7.29167C7.0154 5.20831 6.75045 5.31806 6.5551 5.51341C6.35975 5.70876 6.25 5.97371 6.25 6.24998C6.25 6.52625 6.35975 6.7912 6.5551 6.98655C6.75045 7.1819 7.0154 7.29165 7.29167 7.29165Z" fill="white"/>
<path d="M17.7083 9.375H7.29167C7.0154 9.375 6.75045 9.48475 6.5551 9.6801C6.35975 9.87545 6.25 10.1404 6.25 10.4167C6.25 10.6929 6.35975 10.9579 6.5551 11.1532C6.75045 11.3486 7.0154 11.4583 7.29167 11.4583H17.7083C17.9846 11.4583 18.2496 11.3486 18.4449 11.1532C18.6403 10.9579 18.75 10.6929 18.75 10.4167C18.75 10.1404 18.6403 9.87545 18.4449 9.6801C18.2496 9.48475 17.9846 9.375 17.7083 9.375Z" fill="white"/>
<path d="M17.7083 13.5417H7.29167C7.0154 13.5417 6.75045 13.6514 6.5551 13.8468C6.35975 14.0421 6.25 14.3071 6.25 14.5834C6.25 14.8596 6.35975 15.1246 6.5551 15.3199C6.75045 15.5153 7.0154 15.625 7.29167 15.625H17.7083C17.9846 15.625 18.2496 15.5153 18.4449 15.3199C18.6403 15.1246 18.75 14.8596 18.75 14.5834C18.75 14.3071 18.6403 14.0421 18.4449 13.8468C18.2496 13.6514 17.9846 13.5417 17.7083 13.5417Z" fill="white"/>
</svg>
