<?xml version="1.0"?>
<svg xmlns="http://www.w3.org/2000/svg" xmlns:xlink="http://www.w3.org/1999/xlink" xmlns:svgjs="http://svgjs.com/svgjs" version="1.1" width="512" height="512" x="0" y="0" viewBox="0 0 24 24" style="enable-background:new 0 0 512 512" xml:space="preserve"><g><path xmlns="http://www.w3.org/2000/svg" d="m12 0a12 12 0 1 0 12 12 12.013 12.013 0 0 0 -12-12zm1 21.949v-1.949a1 1 0 0 0 -2 0v1.949a10.015 10.015 0 0 1 -8.949-8.949h1.949a1 1 0 0 0 0-2h-1.949a10.015 10.015 0 0 1 8.949-8.949v1.949a1 1 0 0 0 2 0v-1.949a10.015 10.015 0 0 1 8.949 8.949h-1.949a1 1 0 0 0 0 2h1.949a10.015 10.015 0 0 1 -8.949 8.949zm3-9.949a1 1 0 0 1 -1 1h-2v2a1 1 0 0 1 -2 0v-2h-2a1 1 0 0 1 0-2h2v-2a1 1 0 0 1 2 0v2h2a1 1 0 0 1 1 1z" fill="#ffffff" data-original="#000000"/></g></svg>
