<svg width="70" height="70" viewBox="0 0 70 70" fill="none" xmlns="http://www.w3.org/2000/svg">
<g clip-path="url(#clip0_312_213)">
<path d="M55.4167 8.81417C55.4167 8.79083 55.4167 8.77333 55.4167 8.75V2.91667C55.4167 2.14312 55.1094 1.40125 54.5624 0.854272C54.0154 0.307291 53.2735 0 52.5 0C51.7264 0 50.9846 0.307291 50.4376 0.854272C49.8906 1.40125 49.5833 2.14312 49.5833 2.91667V6.125C48.6234 5.93007 47.6462 5.83235 46.6667 5.83333H43.75V2.91667C43.75 2.14312 43.4427 1.40125 42.8957 0.854272C42.3487 0.307291 41.6069 0 40.8333 0C40.0598 0 39.3179 0.307291 38.7709 0.854272C38.224 1.40125 37.9167 2.14312 37.9167 2.91667V5.83333H32.0833V2.91667C32.0833 2.14312 31.776 1.40125 31.2291 0.854272C30.6821 0.307291 29.9402 0 29.1667 0C28.3931 0 27.6513 0.307291 27.1043 0.854272C26.5573 1.40125 26.25 2.14312 26.25 2.91667V5.83333H23.3333C22.3538 5.83235 21.3766 5.93007 20.4167 6.125V2.91667C20.4167 2.14312 20.1094 1.40125 19.5624 0.854272C19.0154 0.307291 18.2735 0 17.5 0C16.7265 0 15.9846 0.307291 15.4376 0.854272C14.8906 1.40125 14.5833 2.14312 14.5833 2.91667V8.75V8.81417C12.7773 10.1628 11.31 11.9132 10.2975 13.927C9.28501 15.9408 8.7552 18.1627 8.75 20.4167V55.4167C8.75463 59.283 10.2926 62.9896 13.0265 65.7235C15.7604 68.4574 19.467 69.9954 23.3333 70H46.6667C50.533 69.9954 54.2396 68.4574 56.9735 65.7235C59.7074 62.9896 61.2454 59.283 61.25 55.4167V20.4167C61.2448 18.1627 60.715 15.9408 59.7025 13.927C58.69 11.9132 57.2227 10.1628 55.4167 8.81417ZM55.4167 55.4167C55.4167 57.7373 54.4948 59.9629 52.8538 61.6038C51.2129 63.2448 48.9873 64.1667 46.6667 64.1667H23.3333C21.0127 64.1667 18.7871 63.2448 17.1461 61.6038C15.5052 59.9629 14.5833 57.7373 14.5833 55.4167V20.4167C14.5833 18.096 15.5052 15.8704 17.1461 14.2295C18.7871 12.5885 21.0127 11.6667 23.3333 11.6667H46.6667C48.9873 11.6667 51.2129 12.5885 52.8538 14.2295C54.4948 15.8704 55.4167 18.096 55.4167 20.4167V55.4167ZM49.5833 23.3333C49.5833 24.1069 49.276 24.8487 48.7291 25.3957C48.1821 25.9427 47.4402 26.25 46.6667 26.25H23.3333C22.5598 26.25 21.8179 25.9427 21.2709 25.3957C20.724 24.8487 20.4167 24.1069 20.4167 23.3333C20.4167 22.5598 20.724 21.8179 21.2709 21.2709C21.8179 20.724 22.5598 20.4167 23.3333 20.4167H46.6667C47.4402 20.4167 48.1821 20.724 48.7291 21.2709C49.276 21.8179 49.5833 22.5598 49.5833 23.3333ZM49.5833 35C49.5833 35.7735 49.276 36.5154 48.7291 37.0624C48.1821 37.6094 47.4402 37.9167 46.6667 37.9167H23.3333C22.5598 37.9167 21.8179 37.6094 21.2709 37.0624C20.724 36.5154 20.4167 35.7735 20.4167 35C20.4167 34.2264 20.724 33.4846 21.2709 32.9376C21.8179 32.3906 22.5598 32.0833 23.3333 32.0833H46.6667C47.4402 32.0833 48.1821 32.3906 48.7291 32.9376C49.276 33.4846 49.5833 34.2264 49.5833 35ZM37.9167 46.6667C37.9167 47.4402 37.6094 48.1821 37.0624 48.7291C36.5154 49.276 35.7735 49.5833 35 49.5833H23.3333C22.5598 49.5833 21.8179 49.276 21.2709 48.7291C20.724 48.1821 20.4167 47.4402 20.4167 46.6667C20.4167 45.8931 20.724 45.1512 21.2709 44.6043C21.8179 44.0573 22.5598 43.75 23.3333 43.75H35C35.7735 43.75 36.5154 44.0573 37.0624 44.6043C37.6094 45.1512 37.9167 45.8931 37.9167 46.6667Z" fill="white"/>
</g>
<defs>
<clipPath id="clip0_312_213">
<rect width="70" height="70" fill="white"/>
</clipPath>
</defs>
</svg>
