<svg width="35" height="35" viewBox="0 0 35 35" fill="none" xmlns="http://www.w3.org/2000/svg">
<g clip-path="url(#clip0_451_315)">
<path d="M33.9368 13.736C31.6749 10.0522 26.5299 3.87183 17.4999 3.87183C8.46989 3.87183 3.32489 10.0522 1.06302 13.736C0.363787 14.8669 -0.0065918 16.1703 -0.0065918 17.5C-0.0065918 18.8296 0.363787 20.133 1.06302 21.2639C3.32489 24.9477 8.46989 31.1281 17.4999 31.1281C26.5299 31.1281 31.6749 24.9477 33.9368 21.2639C34.636 20.133 35.0064 18.8296 35.0064 17.5C35.0064 16.1703 34.636 14.8669 33.9368 13.736ZM31.4503 19.737C29.5078 22.8958 25.1109 28.2114 17.4999 28.2114C9.88885 28.2114 5.49197 22.8958 3.54947 19.737C3.13405 19.0648 2.91401 18.2902 2.91401 17.5C2.91401 16.7097 3.13405 15.9351 3.54947 15.2629C5.49197 12.1041 9.88885 6.78849 17.4999 6.78849C25.1109 6.78849 29.5078 12.0983 31.4503 15.2629C31.8657 15.9351 32.0858 16.7097 32.0858 17.5C32.0858 18.2902 31.8657 19.0648 31.4503 19.737Z" fill="white"/>
<path d="M17.4999 10.2083C16.0578 10.2083 14.648 10.6359 13.4489 11.4371C12.2498 12.2383 11.3152 13.3771 10.7633 14.7095C10.2114 16.0419 10.067 17.508 10.3484 18.9224C10.6297 20.3369 11.3242 21.6361 12.3439 22.6559C13.3637 23.6756 14.6629 24.3701 16.0774 24.6515C17.4918 24.9328 18.9579 24.7884 20.2903 24.2365C21.6227 23.6846 22.7615 22.75 23.5627 21.5509C24.3639 20.3518 24.7916 18.9421 24.7916 17.4999C24.7893 15.5668 24.0203 13.7134 22.6533 12.3465C21.2864 10.9795 19.4331 10.2106 17.4999 10.2083ZM17.4999 21.8749C16.6346 21.8749 15.7888 21.6183 15.0693 21.1376C14.3498 20.6569 13.7891 19.9736 13.4579 19.1741C13.1268 18.3747 13.0402 17.4951 13.209 16.6464C13.3778 15.7977 13.7945 15.0182 14.4063 14.4063C15.0182 13.7945 15.7977 13.3778 16.6464 13.209C17.4951 13.0402 18.3747 13.1268 19.1742 13.4579C19.9736 13.7891 20.6569 14.3498 21.1376 15.0693C21.6183 15.7888 21.8749 16.6346 21.8749 17.4999C21.8749 18.6602 21.414 19.773 20.5935 20.5935C19.773 21.414 18.6602 21.8749 17.4999 21.8749Z" fill="white"/>
</g>
<defs>
<clipPath id="clip0_451_315">
<rect width="35" height="35" fill="white"/>
</clipPath>
</defs>
</svg>
