<svg width="77" height="70" viewBox="0 0 77 70" fill="none" xmlns="http://www.w3.org/2000/svg">
<path d="M75.6279 65.0213L56.5861 47.6118C61.7752 41.8093 64.3265 34.4054 63.7123 26.9313C63.0981 19.4573 59.3654 12.485 53.2862 7.45662C47.2071 2.42825 39.2466 -0.271468 31.0514 -0.084125C22.8562 0.103218 15.0532 3.16329 9.25651 8.46313C3.4598 13.763 0.112849 20.8971 -0.0920575 28.3899C-0.296964 35.8827 2.65585 43.1608 8.15563 48.7189C13.6554 54.277 21.2813 57.6898 29.4561 58.2513C37.6308 58.8129 45.7289 56.4803 52.0753 51.7359L71.1171 69.1455C71.7187 69.6768 72.5245 69.9708 73.361 69.9642C74.1974 69.9575 74.9975 69.6508 75.589 69.11C76.1805 68.5692 76.516 67.8377 76.5232 67.0729C76.5305 66.3082 76.209 65.5714 75.6279 65.0213ZM31.9011 52.5001C26.8536 52.5001 21.9194 51.1316 17.7225 48.5677C13.5256 46.0038 10.2545 42.3597 8.32292 38.096C6.39131 33.8324 5.88592 29.1409 6.87064 24.6147C7.85537 20.0884 10.286 15.9308 13.8551 12.6676C17.4243 9.40438 21.9717 7.18209 26.9222 6.28177C31.8728 5.38145 37.0042 5.84353 41.6675 7.60957C46.3308 9.37562 50.3166 12.3663 53.1209 16.2035C55.9252 20.0406 57.4219 24.5519 57.4219 29.1668C57.4143 35.353 54.7231 41.2839 49.9387 45.6582C45.1542 50.0326 38.6673 52.4932 31.9011 52.5001Z" fill="white"/>
</svg>
