<?xml version="1.0"?>
<svg xmlns="http://www.w3.org/2000/svg" xmlns:xlink="http://www.w3.org/1999/xlink" xmlns:svgjs="http://svgjs.com/svgjs" version="1.1" width="512" height="512" x="0" y="0" viewBox="0 0 24 24" style="enable-background:new 0 0 512 512" xml:space="preserve"><g><path xmlns="http://www.w3.org/2000/svg" d="m9 0h-4a5 5 0 0 0 -5 5v14a5 5 0 0 0 5 5h9v-19a5 5 0 0 0 -5-5zm-4 19h-1a1 1 0 0 1 0-2h1a1 1 0 0 1 0 2zm0-4h-1a1 1 0 0 1 0-2h1a1 1 0 0 1 0 2zm0-4h-1a1 1 0 0 1 0-2h1a1 1 0 0 1 0 2zm0-4h-1a1 1 0 0 1 0-2h1a1 1 0 0 1 0 2zm5 12h-1a1 1 0 0 1 0-2h1a1 1 0 0 1 0 2zm0-4h-1a1 1 0 0 1 0-2h1a1 1 0 0 1 0 2zm0-4h-1a1 1 0 0 1 0-2h1a1 1 0 0 1 0 2zm0-4h-1a1 1 0 0 1 0-2h1a1 1 0 0 1 0 2zm9-2h-3v19h3a5.006 5.006 0 0 0 5-5v-9a5.006 5.006 0 0 0 -5-5zm1 14a1 1 0 1 1 1-1 1 1 0 0 1 -1 1zm0-4a1 1 0 1 1 1-1 1 1 0 0 1 -1 1zm0-4a1 1 0 1 1 1-1 1 1 0 0 1 -1 1z" fill="#ffffff" data-original="#000000"/></g></svg>
