<svg width="25" height="25" viewBox="0 0 25 25" fill="none" xmlns="http://www.w3.org/2000/svg">
<path d="M19.7917 0H5.20833C3.82751 0.00165402 2.50371 0.550919 1.52731 1.52731C0.550919 2.50371 0.00165402 3.82751 0 5.20833L0 19.7917C0.00165402 21.1725 0.550919 22.4963 1.52731 23.4727C2.50371 24.4491 3.82751 24.9983 5.20833 25H19.7917C21.1725 24.9983 22.4963 24.4491 23.4727 23.4727C24.4491 22.4963 24.9983 21.1725 25 19.7917V5.20833C24.9983 3.82751 24.4491 2.50371 23.4727 1.52731C22.4963 0.550919 21.1725 0.00165402 19.7917 0V0ZM22.9167 5.20833H15.625V2.08333H19.7917C20.6205 2.08333 21.4153 2.41257 22.0014 2.99862C22.5874 3.58468 22.9167 4.37953 22.9167 5.20833ZM11.4583 2.08333H13.5417V7.29167C13.5417 7.56793 13.4319 7.83289 13.2366 8.02824C13.0412 8.22359 12.7763 8.33333 12.5 8.33333C12.2237 8.33333 11.9588 8.22359 11.7634 8.02824C11.5681 7.83289 11.4583 7.56793 11.4583 7.29167V2.08333ZM5.20833 2.08333H9.375V5.20833H2.08333C2.08333 4.37953 2.41257 3.58468 2.99862 2.99862C3.58468 2.41257 4.37953 2.08333 5.20833 2.08333ZM19.7917 22.9167H5.20833C4.37953 22.9167 3.58468 22.5874 2.99862 22.0014C2.41257 21.4153 2.08333 20.6205 2.08333 19.7917V7.29167H9.375C9.375 8.12047 9.70424 8.91532 10.2903 9.50138C10.8763 10.0874 11.6712 10.4167 12.5 10.4167C13.3288 10.4167 14.1237 10.0874 14.7097 9.50138C15.2958 8.91532 15.625 8.12047 15.625 7.29167H22.9167V19.7917C22.9167 20.6205 22.5874 21.4153 22.0014 22.0014C21.4153 22.5874 20.6205 22.9167 19.7917 22.9167ZM20.8333 19.7917C20.8333 20.0679 20.7236 20.3329 20.5282 20.5282C20.3329 20.7236 20.0679 20.8333 19.7917 20.8333H16.6667C16.3904 20.8333 16.1254 20.7236 15.9301 20.5282C15.7347 20.3329 15.625 20.0679 15.625 19.7917C15.625 19.5154 15.7347 19.2504 15.9301 19.0551C16.1254 18.8597 16.3904 18.75 16.6667 18.75H19.7917C20.0679 18.75 20.3329 18.8597 20.5282 19.0551C20.7236 19.2504 20.8333 19.5154 20.8333 19.7917Z" fill="white"/>
</svg>
