<svg width="35" height="35" viewBox="0 0 35 35" fill="none" xmlns="http://www.w3.org/2000/svg">
<g clip-path="url(#clip0_347_259)">
<path d="M32.5485 6.46189L12.3958 26.6131C12.2603 26.7492 12.0993 26.8571 11.922 26.9308C11.7447 27.0044 11.5546 27.0423 11.3626 27.0423C11.1706 27.0423 10.9805 27.0044 10.8032 26.9308C10.6259 26.8571 10.4649 26.7492 10.3294 26.6131L2.53603 18.8125C2.40054 18.6765 2.23952 18.5686 2.06221 18.4949C1.88491 18.4213 1.6948 18.3833 1.5028 18.3833C1.31081 18.3833 1.1207 18.4213 0.943397 18.4949C0.766089 18.5686 0.60507 18.6765 0.469577 18.8125C0.333548 18.948 0.225613 19.109 0.151965 19.2863C0.078317 19.4636 0.0404053 19.6537 0.0404053 19.8457C0.0404053 20.0377 0.078317 20.2278 0.151965 20.4052C0.225613 20.5825 0.333548 20.7435 0.469577 20.879L8.26582 28.6738C9.08824 29.4947 10.2028 29.9557 11.3648 29.9557C12.5268 29.9557 13.6413 29.4947 14.4637 28.6738L34.615 8.52689C34.7508 8.39142 34.8585 8.23049 34.932 8.05332C35.0056 7.87615 35.0434 7.68621 35.0434 7.49439C35.0434 7.30257 35.0056 7.11263 34.932 6.93546C34.8585 6.75828 34.7508 6.59735 34.615 6.46189C34.4795 6.32586 34.3185 6.21792 34.1411 6.14428C33.9638 6.07063 33.7737 6.03271 33.5817 6.03271C33.3897 6.03271 33.1996 6.07063 33.0223 6.14428C32.845 6.21792 32.684 6.32586 32.5485 6.46189Z" fill="white"/>
</g>
<defs>
<clipPath id="clip0_347_259">
<rect width="35" height="35" fill="white"/>
</clipPath>
</defs>
</svg>
