<?xml version="1.0"?>
<svg xmlns="http://www.w3.org/2000/svg" xmlns:xlink="http://www.w3.org/1999/xlink" xmlns:svgjs="http://svgjs.com/svgjs" version="1.1" width="512" height="512" x="0" y="0" viewBox="0 0 24 24" style="enable-background:new 0 0 512 512" xml:space="preserve"><g><path xmlns="http://www.w3.org/2000/svg" d="M12,6A3,3,0,0,0,9,9V21a3,3,0,0,0,6,0V9A3,3,0,0,0,12,6Z" fill="#ffffff" data-original="#000000"/><path xmlns="http://www.w3.org/2000/svg" d="M21,0a3,3,0,0,0-3,3V21a3,3,0,0,0,6,0V3A3,3,0,0,0,21,0Zm1,21a1,1,0,0,1-2,0V3a1,1,0,0,1,2,0Z" fill="#ffffff" data-original="#000000"/><path xmlns="http://www.w3.org/2000/svg" d="M3,12a3,3,0,0,0-3,3v6a3,3,0,0,0,6,0V15A3,3,0,0,0,3,12Z" fill="#ffffff" data-original="#000000"/></g></svg>
