<svg width="25" height="25" viewBox="0 0 25 25" fill="none" xmlns="http://www.w3.org/2000/svg">
<g clip-path="url(#clip0_305_51)">
<path d="M4.16669 6.25002C3.75601 6.2511 3.3492 6.17073 2.96979 6.01356C2.59038 5.8564 2.24589 5.62555 1.95627 5.33439L0.34794 3.90314C0.141568 3.71915 0.0167402 3.46071 0.000916771 3.18468C-0.0149066 2.90865 0.0795706 2.63764 0.263565 2.43127C0.447558 2.2249 0.705997 2.10007 0.982027 2.08424C1.25806 2.06842 1.52907 2.1629 1.73544 2.34689L3.38648 3.81981C3.481 3.92595 3.59624 4.01163 3.7251 4.07157C3.85397 4.13151 3.99374 4.16444 4.13581 4.16835C4.27788 4.17225 4.41925 4.14704 4.55121 4.09426C4.68318 4.04149 4.80295 3.96227 4.90315 3.86148L8.65731 0.287516C8.85918 0.107798 9.123 0.0135779 9.39305 0.024757C9.66309 0.0359362 9.91822 0.151639 10.1045 0.347428C10.2909 0.543216 10.3938 0.80376 10.3916 1.07403C10.3894 1.3443 10.2822 1.60313 10.0927 1.79585L6.35419 5.3521C6.06645 5.63816 5.72515 5.8647 5.34981 6.01877C4.97446 6.17285 4.57242 6.25142 4.16669 6.25002ZM25 4.16668C25 3.89042 24.8903 3.62546 24.6949 3.43011C24.4996 3.23476 24.2346 3.12502 23.9584 3.12502H13.5417C13.2654 3.12502 13.0005 3.23476 12.8051 3.43011C12.6098 3.62546 12.5 3.89042 12.5 4.16668C12.5 4.44295 12.6098 4.7079 12.8051 4.90325C13.0005 5.0986 13.2654 5.20835 13.5417 5.20835H23.9584C24.2346 5.20835 24.4996 5.0986 24.6949 4.90325C24.8903 4.7079 25 4.44295 25 4.16668ZM6.35419 13.6854L10.0927 10.1292C10.1971 10.0363 10.2817 9.92335 10.3415 9.7971C10.4013 9.67084 10.4351 9.53384 10.4409 9.39426C10.4466 9.25467 10.4243 9.11535 10.3751 8.98458C10.3259 8.85381 10.251 8.73427 10.1547 8.63307C10.0584 8.53186 9.94267 8.45107 9.8145 8.39549C9.68632 8.33991 9.54828 8.31068 9.40858 8.30954C9.26888 8.3084 9.13037 8.33537 9.00131 8.38885C8.87225 8.44234 8.75526 8.52123 8.65731 8.62085L4.90731 12.1948C4.70901 12.3844 4.44522 12.4903 4.17086 12.4903C3.89649 12.4903 3.6327 12.3844 3.4344 12.1948L1.77815 10.5438C1.58169 10.354 1.31856 10.249 1.04544 10.2514C0.772317 10.2538 0.511054 10.3633 0.31792 10.5565C0.124787 10.7496 0.0152358 11.0109 0.0128624 11.284C0.0104891 11.5571 0.115483 11.8202 0.305231 12.0167L1.95627 13.6677C2.53927 14.2509 3.3291 14.5799 4.15367 14.5833C4.97823 14.5866 5.77069 14.2639 6.35836 13.6854H6.35419ZM25 12.5C25 12.2238 24.8903 11.9588 24.6949 11.7635C24.4996 11.5681 24.2346 11.4584 23.9584 11.4584H13.5417C13.2654 11.4584 13.0005 11.5681 12.8051 11.7635C12.6098 11.9588 12.5 12.2238 12.5 12.5C12.5 12.7763 12.6098 13.0412 12.8051 13.2366C13.0005 13.4319 13.2654 13.5417 13.5417 13.5417H23.9584C24.2346 13.5417 24.4996 13.4319 24.6949 13.2366C24.8903 13.0412 25 12.7763 25 12.5ZM6.35419 22.0188L10.0886 18.4625C10.1929 18.3696 10.2775 18.2567 10.3373 18.1304C10.3971 18.0042 10.4309 17.8672 10.4367 17.7276C10.4425 17.588 10.4201 17.4487 10.3709 17.3179C10.3218 17.1871 10.2468 17.0676 10.1505 16.9664C10.0542 16.8652 9.93851 16.7844 9.81033 16.7288C9.68216 16.6732 9.54411 16.644 9.40441 16.6429C9.26471 16.6417 9.12621 16.6687 8.99714 16.7222C8.86808 16.7757 8.75109 16.8546 8.65315 16.9542L4.90315 20.5281C4.80295 20.6289 4.68318 20.7082 4.55121 20.7609C4.41925 20.8137 4.27788 20.8389 4.13581 20.835C3.99374 20.8311 3.85397 20.7982 3.7251 20.7382C3.59624 20.6783 3.481 20.5926 3.38648 20.4865L1.73544 19.0136C1.52907 18.8296 1.25806 18.7351 0.982027 18.7509C0.705997 18.7667 0.447558 18.8916 0.263565 19.0979C0.0795706 19.3043 -0.0149066 19.5753 0.000916771 19.8514C0.0167402 20.1274 0.141568 20.3858 0.34794 20.5698L1.95627 22.0011C2.53927 22.5842 3.3291 22.9133 4.15367 22.9166C4.97823 22.9199 5.77069 22.5972 6.35836 22.0188H6.35419ZM25 20.8334C25 20.5571 24.8903 20.2921 24.6949 20.0968C24.4996 19.9014 24.2346 19.7917 23.9584 19.7917H13.5417C13.2654 19.7917 13.0005 19.9014 12.8051 20.0968C12.6098 20.2921 12.5 20.5571 12.5 20.8334C12.5 21.1096 12.6098 21.3746 12.8051 21.5699C13.0005 21.7653 13.2654 21.875 13.5417 21.875H23.9584C24.2346 21.875 24.4996 21.7653 24.6949 21.5699C24.8903 21.3746 25 21.1096 25 20.8334Z" fill="white"/>
</g>
<defs>
<clipPath id="clip0_305_51">
<rect width="25" height="25" fill="white"/>
</clipPath>
</defs>
</svg>
