<svg width="35" height="35" viewBox="0 0 35 35" fill="none" xmlns="http://www.w3.org/2000/svg">
<g clip-path="url(#clip0_347_262)">
<path d="M33.5417 35C33.1549 35 32.784 34.8463 32.5105 34.5729C32.237 34.2994 32.0834 33.9284 32.0834 33.5417C32.081 31.2217 31.1584 28.9975 29.518 27.357C27.8775 25.7166 25.6533 24.794 23.3334 24.7917H14.8313V27.1046C14.8312 27.6813 14.66 28.2451 14.3395 28.7247C14.019 29.2042 13.5636 29.5779 13.0307 29.7986C12.4978 30.0193 11.9115 30.0771 11.3458 29.9646C10.7801 29.8521 10.2604 29.5744 9.85253 29.1667L1.27899 20.5931C0.458801 19.7727 -0.00195313 18.6601 -0.00195312 17.5C-0.00195313 16.3399 0.458801 15.2273 1.27899 14.4069L9.85253 5.83333C10.2604 5.42555 10.7801 5.14787 11.3458 5.03538C11.9115 4.92289 12.4978 4.98065 13.0307 5.20135C13.5636 5.42206 14.019 5.7958 14.3395 6.27533C14.66 6.75486 14.8312 7.31864 14.8313 7.89541V10.2083H21.875C25.3548 10.2122 28.691 11.5962 31.1515 14.0568C33.6121 16.5174 34.9962 19.8535 35 23.3333V33.5417C35 33.9284 34.8464 34.2994 34.5729 34.5729C34.2994 34.8463 33.9285 35 33.5417 35ZM11.9146 7.89541L3.34107 16.469C3.06767 16.7424 2.91409 17.1133 2.91409 17.5C2.91409 17.8867 3.06767 18.2576 3.34107 18.531L11.9146 27.1046V23.3333C11.9146 22.9466 12.0683 22.5756 12.3417 22.3021C12.6152 22.0286 12.9862 21.875 13.3729 21.875H23.3334C24.9894 21.8745 26.6265 22.2273 28.1354 22.9098C29.6443 23.5923 30.9902 24.5889 32.0834 25.8329V23.3333C32.0803 20.6269 31.0038 18.0321 29.09 16.1184C27.1762 14.2046 24.5815 13.1281 21.875 13.125H13.3729C12.9862 13.125 12.6152 12.9714 12.3417 12.6979C12.0683 12.4244 11.9146 12.0534 11.9146 11.6667V7.89541Z" fill="white"/>
</g>
<defs>
<clipPath id="clip0_347_262">
<rect width="35" height="35" fill="white"/>
</clipPath>
</defs>
</svg>
