<svg width="35" height="35" viewBox="0 0 35 35" fill="none" xmlns="http://www.w3.org/2000/svg">
<path d="M26.9792 35H8.02083C5.89429 34.9977 3.8555 34.1519 2.35181 32.6482C0.84811 31.1445 0.00231608 29.1057 0 26.9792L0 8.02083C0.00231608 5.89429 0.84811 3.8555 2.35181 2.35181C3.8555 0.84811 5.89429 0.00231608 8.02083 0L26.9792 0C29.1057 0.00231608 31.1445 0.84811 32.6482 2.35181C34.1519 3.8555 34.9977 5.89429 35 8.02083V26.9792C34.9977 29.1057 34.1519 31.1445 32.6482 32.6482C31.1445 34.1519 29.1057 34.9977 26.9792 35ZM8.02083 4.375C7.0539 4.375 6.12657 4.75911 5.44284 5.44284C4.75911 6.12657 4.375 7.0539 4.375 8.02083V26.9792C4.375 27.9461 4.75911 28.8734 5.44284 29.5572C6.12657 30.2409 7.0539 30.625 8.02083 30.625H26.9792C27.9461 30.625 28.8734 30.2409 29.5572 29.5572C30.2409 28.8734 30.625 27.9461 30.625 26.9792V8.02083C30.625 7.0539 30.2409 6.12657 29.5572 5.44284C28.8734 4.75911 27.9461 4.375 26.9792 4.375H8.02083ZM11.655 13.6194V21.3806C11.655 21.7221 11.7447 22.0576 11.9151 22.3535C12.0855 22.6494 12.3306 22.8954 12.6259 23.0668C12.9212 23.2383 13.2564 23.3291 13.5979 23.3304C13.9393 23.3316 14.2751 23.2431 14.5717 23.0737L22.3402 19.1931C22.6388 19.0226 22.8869 18.7762 23.0595 18.4789C23.2321 18.1815 23.323 17.8438 23.323 17.5C23.323 17.1562 23.2321 16.8185 23.0595 16.5211C22.8869 16.2238 22.6388 15.9774 22.3402 15.8069L14.5717 11.9263C14.2751 11.7569 13.9393 11.6684 13.5979 11.6696C13.2564 11.6709 12.9212 11.7617 12.6259 11.9332C12.3306 12.1046 12.0855 12.3506 11.9151 12.6465C11.7447 12.9424 11.655 13.2779 11.655 13.6194Z" fill="white"/>
</svg>
