<?xml version="1.0"?>
<svg xmlns="http://www.w3.org/2000/svg" xmlns:xlink="http://www.w3.org/1999/xlink" xmlns:svgjs="http://svgjs.com/svgjs" version="1.1" width="512" height="512" x="0" y="0" viewBox="0 0 24 24" style="enable-background:new 0 0 512 512" xml:space="preserve"><g><path xmlns="http://www.w3.org/2000/svg" d="m19 0h-14a5.006 5.006 0 0 0 -5 5v14a5.006 5.006 0 0 0 5 5h14a5.006 5.006 0 0 0 5-5v-14a5.006 5.006 0 0 0 -5-5zm3 5h-7v-3h4a3 3 0 0 1 3 3zm-11-3h2v5a1 1 0 0 1 -2 0zm-6 0h4v3h-7a3 3 0 0 1 3-3zm14 20h-14a3 3 0 0 1 -3-3v-12h7a3 3 0 0 0 6 0h7v12a3 3 0 0 1 -3 3zm1-3a1 1 0 0 1 -1 1h-3a1 1 0 0 1 0-2h3a1 1 0 0 1 1 1z" fill="#ffffff" data-original="#000000"/></g></svg>
